<svg xmlns="http://www.w3.org/2000/svg" viewBox="0 0 816 816"><circle fill="#E9E9E9" cx="408" cy="408" r="408"/><circle fill="#DFE0EB" cx="408" cy="408" r="408"/><circle fill="#222" cx="408" cy="408" r="381.8"/><radialGradient id="a" cx="408" cy="408" r="371.531" gradientUnits="userSpaceOnUse"><stop offset="0" stop-color="#311f5e"/><stop offset="1" stop-color="#201235"/></radialGradient><circle fill="url(#a)" cx="408" cy="408" r="371.5"/><path fill="#FF344D" d="M387.3 158.1l-3.8-45.4c-16.5 1.4-32.6 4.1-48.3 8l11.2 44.2c13.3-3.3 26.9-5.6 40.9-6.8z"/><path fill="#6E6463" d="M345.6 166.3l-11.8-46.4 1.1-.3c15.8-4 32.1-6.7 48.5-8l1.1-.1 4 47.7-1.1.1c-13.7 1.1-27.4 3.4-40.7 6.7l-1.1.3zm-9-44.8l10.6 42c12.7-3.1 25.7-5.3 38.8-6.4l-3.6-43.2c-15.4 1.4-30.8 3.9-45.8 7.6z"/><path fill="#352420" d="M346.4 164.9l-11.2-44.2c-16 4-31.5 9.4-46.3 15.9l18.3 41.8c12.6-5.6 25.7-10.1 39.2-13.5z"/><path fill="#6E6463" d="M306.7 179.9L287.4 136l1-.5c15-6.6 30.6-12 46.5-16l1.1-.3 11.8 46.4-1.1.3c-13.3 3.4-26.4 7.9-39 13.4l-1 .6zm-16.2-42.7l17.4 39.7c12-5.2 24.5-9.5 37.2-12.8l-10.6-42c-15 3.8-29.8 8.9-44 15.1z"/><path fill="#00D2D9" d="M408 157.3c7 0 13.9.3 20.7.9l3.8-45.4c-8.1-.7-16.2-1-24.5-1-8.2 0-16.4.4-24.5 1l3.8 45.4c6.8-.6 13.7-.9 20.7-.9z"/><path fill="#6E6463" d="M429.7 159.4l-1.1-.1c-6.9-.6-13.9-.9-20.6-.9-6.8 0-13.7.3-20.6.9l-1.1.1-4-47.7 1.1-.1c8.3-.7 16.5-1 24.6-1 8 0 16.3.3 24.6 1l1.1.1-4 47.7zm-21.7-3.3c6.4 0 13.1.3 19.7.8l3.6-43.2c-7.8-.6-15.6-.9-23.2-.9s-15.4.3-23.2.9l3.6 43.2c6.4-.5 13.1-.8 19.5-.8z"/><path fill="#FF344D" d="M469.6 164.9l11.2-44.2c-15.6-3.9-31.8-6.6-48.3-8l-3.8 45.4c14 1.2 27.6 3.5 40.9 6.8z"/><path fill="#6E6463" d="M470.4 166.3l-1.1-.3c-13.3-3.3-26.9-5.6-40.7-6.7l-1.1-.1 4-47.7 1.1.1c16.4 1.3 32.7 4 48.5 8l1.1.3-11.8 46.4zm-40.5-9.2c13.1 1.1 26.1 3.3 38.8 6.4l10.6-42c-15-3.7-30.4-6.3-45.9-7.6l-3.5 43.2z"/><path fill="#FF344D" d="M307.3 178.4L289 136.6c-15 6.6-29.4 14.4-43 23.3l24.9 38.2c11.5-7.5 23.6-14.2 36.4-19.7z"/><path fill="#6E6463" d="M270.5 199.7l-26.2-40.1 1-.6c13.7-9 28.2-16.8 43.2-23.4l1-.5 19.2 43.8-1 .5c-12.6 5.5-24.7 12.1-36.2 19.7l-1 .6zm-23-39.4l23.7 36.3c11-7.1 22.6-13.4 34.6-18.7l-17.4-39.7c-14.2 6.2-27.9 13.6-40.9 22.1z"/><path fill="#FF344D" d="M187.5 288.6l-40.1-21.7c-7.7 14.3-14.3 29.3-19.7 44.8l43.1 14.8c4.5-13.1 10.1-25.8 16.7-37.9z"/><path fill="#6E6463" d="M171.5 328l-45.3-15.5.4-1.1c5.3-15.5 12-30.6 19.8-45l.5-1 42.1 22.8-.5 1c-6.5 12-12.1 24.8-16.6 37.8l-.4 1zm-42.4-16.9l41 14.1c4.3-12.4 9.6-24.5 15.8-36l-38.1-20.6c-7.3 13.5-13.6 27.8-18.7 42.5z"/><path fill="#352420" d="M270.9 198.1L246 159.9c-13.7 9-26.6 19-38.6 30.1l30.9 33.5c10-9.3 21-17.8 32.6-25.4z"/><path fill="#6E6463" d="M238.1 225.2L205.7 190l.8-.8c12-11.1 25.1-21.2 38.7-30.2l1-.6 26.2 40.1-1 .6c-11.5 7.5-22.4 16-32.5 25.3l-.8.8zm-29.2-35.1l29.3 31.9c9.7-8.8 20.1-17 31-24.2l-23.7-36.3c-12.8 8.5-25.1 18.1-36.6 28.6z"/><path fill="#352420" d="M210.1 254l-36-28c-10 12.8-19 26.5-26.8 40.9l40.1 21.7c6.7-12.2 14.3-23.7 22.7-34.6z"/><path fill="#6E6463" d="M187.9 290.2l-42.1-22.8.5-1c7.8-14.3 16.8-28.2 26.9-41.1l.7-.9 37.8 29.4-.7.9c-8.5 10.9-16.1 22.5-22.6 34.5l-.5 1zm-39-23.7l38.1 20.6c6.3-11.4 13.5-22.5 21.5-32.9l-34.2-26.6c-9.4 12.3-18 25.4-25.4 38.9z"/><path fill="#FF344D" d="M238.2 223.5L207.3 190c-12 11.1-23.1 23.1-33.2 36l36 28c8.5-10.9 17.9-21.1 28.1-30.5z"/><path fill="#6E6463" d="M210.3 255.6l-37.8-29.4.7-.9c10-12.9 21.2-25 33.3-36.1l.8-.8 32.4 35.2-.8.8c-10.1 9.3-19.5 19.5-27.9 30.3l-.7.9zm-34.5-29.8l34.2 26.6c8.1-10.3 17-20 26.6-28.9l-29.3-31.9c-11.4 10.6-22 22.1-31.5 34.2z"/><path fill="#352420" d="M170.8 326.6l-43.1-14.8c-5.2 15.3-9.3 31.2-12 47.5l45 7.5c2.3-13.9 5.7-27.3 10.1-40.2z"/><path fill="#6E6463" d="M161.6 368l-47.2-7.9.2-1.1c2.7-16.2 6.7-32.2 12-47.6l.4-1.1 45.3 15.5-.4 1.1c-4.4 12.9-7.8 26.4-10.1 40l-.2 1.1zm-44.6-9.7l42.7 7.1c2.2-13 5.4-25.8 9.6-38.1l-41-14.1c-4.9 14.6-8.7 29.8-11.3 45.1z"/><path fill="#352420" d="M508.7 178.4l18.3-41.8c-14.8-6.5-30.3-11.9-46.3-15.9l-11.2 44.2c13.6 3.4 26.7 7.9 39.2 13.5z"/><path fill="#6E6463" d="M509.3 179.9l-1-.5c-12.6-5.5-25.7-10-39-13.4l-1.1-.3 11.8-46.4 1.1.3c15.8 4 31.5 9.4 46.5 16l1 .5-19.3 43.8zm-38.4-15.8c12.7 3.3 25.2 7.6 37.2 12.8l17.4-39.7c-14.2-6.2-29-11.3-44-15.1l-10.6 42z"/><path fill="#352420" d="M628.5 288.6l40.1-21.7c-7.8-14.4-16.8-28.1-26.8-40.9l-36 28c8.5 10.9 16.1 22.4 22.7 34.6z"/><path fill="#6E6463" d="M628.1 290.2l-.5-1c-6.5-12-14.1-23.6-22.6-34.5l-.7-.9 37.8-29.4.7.9c10.1 12.9 19.1 26.8 26.9 41.1l.5 1-42.1 22.8zm-20.6-36c8 10.4 15.3 21.5 21.5 32.9l38.1-20.6c-7.4-13.5-16-26.6-25.5-38.9l-34.1 26.6z"/><path fill="#FF344D" d="M645.2 326.6l43.1-14.8c-5.3-15.6-11.9-30.5-19.7-44.8l-40.1 21.7c6.6 12 12.2 24.7 16.7 37.9z"/><path fill="#6E6463" d="M644.5 328l-.4-1.1c-4.5-13-10-25.7-16.6-37.8l-.5-1 42.1-22.8.5 1c7.8 14.4 14.4 29.5 19.8 45l.4 1.1-45.3 15.6zm-14.4-38.9c6.2 11.5 11.5 23.6 15.8 36l41-14.1c-5.1-14.6-11.4-29-18.7-42.6l-38.1 20.7z"/><path fill="#352420" d="M655.3 449.3l45 7.5c2.6-15.9 4-32.2 4-48.8h-45.6c0 14.1-1.2 27.8-3.4 41.3z"/><path fill="#6E6463" d="M701.2 458.1l-47.2-7.9.2-1.1c2.2-13.6 3.4-27.4 3.4-41.1v-1.1h47.9v1.1c0 16.3-1.4 32.8-4 49l-.3 1.1zm-44.6-9.8l42.7 7.1c2.5-15.3 3.8-30.9 3.8-46.3h-43.3c0 13.1-1.1 26.3-3.2 39.2z"/><path fill="#FF344D" d="M658.7 408h45.6c0-16.6-1.4-32.9-4-48.8l-45 7.5c2.2 13.5 3.4 27.2 3.4 41.3z"/><path fill="#6E6463" d="M705.5 409.1h-47.9V408c0-13.7-1.1-27.5-3.4-41.1l-.2-1.1 47.2-7.9.2 1.1c2.7 16.2 4 32.6 4 49v1.1zm-45.6-2.2h43.3c-.1-15.5-1.3-31-3.8-46.3l-42.7 7.1c2 12.9 3.1 26.1 3.2 39.2z"/><path fill="#FF344D" d="M545.1 198.1l24.9-38.2c-13.6-8.9-28-16.7-43-23.3l-18.3 41.8c12.8 5.5 24.9 12.2 36.4 19.7z"/><path fill="#6E6463" d="M545.5 199.7l-1-.6c-11.5-7.5-23.7-14.1-36.2-19.7l-1-.5 19.2-43.8 1 .5c15 6.6 29.5 14.5 43.2 23.4l1 .6-26.2 40.1zm-35.3-21.9c12 5.3 23.6 11.6 34.6 18.7l23.7-36.3c-13-8.4-26.7-15.9-40.9-22.2l-17.4 39.8z"/><path fill="#FF344D" d="M605.9 254l36-28c-10.1-12.9-21.1-24.9-33.2-36l-30.9 33.5c10.2 9.4 19.6 19.6 28.1 30.5z"/><path fill="#6E6463" d="M605.7 255.6l-.7-.9c-8.4-10.8-17.8-21-27.9-30.3l-.8-.8 32.4-35.2.8.8c12 11.1 23.2 23.3 33.3 36.1l.7.9-37.8 29.4zm-26.3-32.1c9.6 8.9 18.6 18.6 26.6 28.9l34.2-26.6c-9.5-12.1-20.1-23.6-31.5-34.2l-29.3 31.9z"/><path fill="#352420" d="M577.8 223.5l30.9-33.5c-12-11-24.9-21.1-38.6-30.1l-24.9 38.2c11.5 7.6 22.5 16.1 32.6 25.4z"/><path fill="#6E6463" d="M577.9 225.2l-.8-.8c-10.1-9.3-21-17.8-32.5-25.3l-1-.6 26.2-40.1 1 .6c13.7 9 26.7 19.1 38.8 30.2l.8.8-32.5 35.2zm-31.2-27.4c10.9 7.2 21.3 15.3 31 24.2l29.3-31.9c-11.4-10.4-23.7-20-36.7-28.6l-23.6 36.3z"/><path fill="#352420" d="M655.3 366.7l45-7.5c-2.7-16.3-6.7-32.2-12-47.5l-43.1 14.8c4.4 13 7.8 26.4 10.1 40.2z"/><path fill="#6E6463" d="M654.4 368l-.2-1.1c-2.2-13.6-5.6-27-10.1-40l-.4-1.1 45.3-15.5.4 1.1c5.3 15.4 9.3 31.5 12 47.6l.2 1.1-47.2 7.9zm-7.8-40.7c4.2 12.4 7.4 25.2 9.6 38.1l42.7-7.1c-2.6-15.3-6.4-30.5-11.4-45.1l-40.9 14.1z"/><path fill="#FF344D" d="M545.1 617.9l24.9 38.2c13.7-9 26.6-19 38.6-30.1l-30.9-33.5c-10 9.3-21 17.8-32.6 25.4z"/><path fill="#6E6463" d="M569.7 657.7l-26.2-40.1 1-.6c11.5-7.5 22.4-16 32.5-25.3l.8-.8 32.4 35.2-.8.8c-12 11.1-25.1 21.2-38.8 30.2l-.9.6zm-23-39.5l23.7 36.3c12.9-8.5 25.2-18.1 36.7-28.6L577.8 594c-9.7 8.9-20.2 17-31.1 24.2z"/><path fill="#352420" d="M508.7 637.6l18.3 41.8c15-6.6 29.4-14.4 43-23.3l-24.9-38.2c-11.5 7.5-23.6 14.2-36.4 19.7z"/><path fill="#6E6463" d="M526.5 680.9l-19.2-43.8 1-.5c12.6-5.5 24.7-12.1 36.2-19.7l1-.6 26.2 40.1-1 .6c-13.7 9-28.2 16.8-43.2 23.4l-1 .5zm-16.3-42.7l17.4 39.7c14.1-6.3 27.9-13.7 40.9-22.2l-23.7-36.3c-11 7.2-22.6 13.5-34.6 18.8z"/><path fill="#00D2D9" d="M408 658.7c-7 0-13.9-.3-20.7-.9l-3.8 45.4c8.1.7 16.2 1 24.5 1 8.2 0 16.4-.4 24.5-1l-3.8-45.4c-6.8.6-13.7.9-20.7.9z"/><path fill="#6E6463" d="M408 705.5c-8 0-16.3-.3-24.6-1l-1.1-.1 4-47.7 1.1.1c6.9.6 13.9.9 20.6.9 6.8 0 13.7-.3 20.6-.9l1.1-.1 4 47.7-1.1.1c-8.3.6-16.6 1-24.6 1zm-23.2-3.2c7.8.6 15.6.9 23.2.9s15.4-.3 23.2-.9l-3.6-43.2c-6.6.5-13.2.8-19.7.8-6.4 0-13.1-.3-19.7-.8l-3.4 43.2z"/><path fill="#352420" d="M428.7 657.9l3.8 45.4c16.5-1.4 32.6-4.1 48.3-8l-11.2-44.2c-13.3 3.3-26.9 5.6-40.9 6.8z"/><path fill="#6E6463" d="M431.4 704.5l-4-47.7 1.1-.1c13.7-1.1 27.4-3.4 40.7-6.7l1.1-.3 11.8 46.4-1.1.3c-15.8 4-32.1 6.7-48.5 8l-1.1.1zm-1.5-45.6l3.6 43.2c15.5-1.3 30.9-3.9 45.9-7.6l-10.6-42c-12.7 3.1-25.8 5.3-38.9 6.4z"/><path fill="#FF344D" d="M469.6 651.1l11.2 44.2c16-4 31.5-9.4 46.3-15.9l-18.3-41.8c-12.6 5.6-25.7 10.1-39.2 13.5z"/><path fill="#6E6463" d="M479.9 696.7l-11.8-46.4 1.1-.3c13.3-3.4 26.4-7.9 39-13.4l1-.5 19.2 43.8-1 .5c-15 6.6-30.6 12-46.5 16l-1 .3zm-9-44.8l10.6 42c15-3.8 29.7-8.9 44-15.1l-17.4-39.7c-12 5.3-24.5 9.6-37.2 12.8z"/><path fill="#FF344D" d="M160.7 366.7l-45-7.5c-2.6 15.9-4 32.2-4 48.8h45.6c0-14.1 1.1-27.8 3.4-41.3z"/><path fill="#6E6463" d="M158.4 409.1h-47.9V408c0-16.3 1.4-32.8 4-49l.2-1.1 47.2 7.9-.2 1.1c-2.2 13.6-3.4 27.4-3.4 41.1v1.1zm-45.6-2.2h43.3c.1-13.1 1.1-26.2 3.2-39.2l-42.7-7.1c-2.4 15.2-3.7 30.8-3.8 46.3z"/><path fill="#FF344D" d="M655.3 449.3c-2.3 13.8-5.7 27.2-10.1 40.2l43.1 14.8c5.2-15.3 9.3-31.2 12-47.5l-45-7.5z"/><path fill="#6E6463" d="M689 505.7l-45.3-15.5.4-1.1c4.4-12.9 7.8-26.4 10.1-40l.2-1.1 47.2 7.9-.2 1.1c-2.7 16.2-6.7 32.2-12 47.6l-.4 1.1zm-42.4-17l41 14.1c5-14.6 8.8-29.8 11.4-45.1l-42.7-7.1c-2.2 12.9-5.5 25.8-9.7 38.1z"/><path fill="#352420" d="M577.8 592.5l30.9 33.5c12-11.1 23.1-23.1 33.2-36l-36-28c-8.5 10.9-17.9 21.1-28.1 30.5z"/><path fill="#6E6463" d="M608.6 627.6l-32.4-35.2.8-.8c10.1-9.3 19.5-19.5 27.9-30.3l.7-.9 37.8 29.4-.7.9c-10 12.9-21.2 25-33.3 36.1l-.8.8zm-29.2-35.1l29.3 31.9c11.4-10.5 21.9-22 31.5-34.2L606 563.6c-8 10.3-17 20-26.6 28.9z"/><path fill="#352420" d="M628.5 527.4l40.1 21.7c7.7-14.3 14.3-29.3 19.7-44.8l-43.1-14.8c-4.5 13.1-10.1 25.8-16.7 37.9z"/><path fill="#6E6463" d="M669.1 550.6L627 527.8l.5-1c6.5-12 12.1-24.7 16.6-37.8l.4-1.1 45.3 15.5-.4 1.1c-5.3 15.5-12 30.6-19.8 45l-.5 1.1zm-39-23.7l38.1 20.6c7.3-13.6 13.6-27.9 18.7-42.6l-41-14.1c-4.3 12.5-9.6 24.6-15.8 36.1z"/><path fill="#FF344D" d="M605.9 562l36 28c10-12.8 19-26.5 26.8-40.9l-40.1-21.7c-6.7 12.2-14.3 23.7-22.7 34.6z"/><path fill="#6E6463" d="M642 591.6l-37.8-29.4.7-.9c8.5-10.9 16.1-22.5 22.6-34.5l.5-1 42.1 22.8-.5 1c-7.8 14.3-16.8 28.2-26.9 41.1l-.7.9zm-34.5-29.8l34.2 26.6c9.5-12.3 18.1-25.4 25.5-38.9L629 528.9c-6.3 11.4-13.5 22.5-21.5 32.9z"/><path fill="#FF344D" d="M187.5 527.4l-40.1 21.7c7.8 14.4 16.8 28.1 26.8 40.9l36-28c-8.5-10.9-16.1-22.4-22.7-34.6z"/><path fill="#6E6463" d="M174 591.6l-.7-.9c-10.1-12.9-19.1-26.8-26.9-41.1l-.5-1 42.1-22.8.5 1c6.5 12 14.1 23.6 22.6 34.5l.7.9-37.8 29.4zm-25.1-42.1c7.4 13.5 16 26.6 25.5 38.9l34.2-26.6c-8-10.4-15.3-21.5-21.5-32.9l-38.2 20.6z"/><path fill="#352420" d="M346.4 651.1l-11.2 44.2c15.6 3.9 31.8 6.6 48.3 8l3.8-45.4c-14-1.2-27.6-3.5-40.9-6.8z"/><path fill="#6E6463" d="M384.6 704.5l-1.1-.1c-16.4-1.3-32.7-4-48.5-8l-1.1-.3 11.8-46.4 1.1.3c13.3 3.3 26.9 5.6 40.7 6.7l1.1.1-4 47.7zm-48-10c15 3.7 30.4 6.3 45.9 7.6l3.6-43.2c-13.1-1.1-26.1-3.3-38.8-6.4l-10.7 42z"/><path fill="#352420" d="M170.8 489.4l-43.1 14.8c5.3 15.6 11.9 30.5 19.7 44.8l40.1-21.7c-6.6-12-12.2-24.7-16.7-37.9z"/><path fill="#6E6463" d="M146.9 550.6l-.5-1c-7.8-14.4-14.4-29.5-19.8-45l-.4-1.1 45.3-15.5.4 1.1c4.5 13 10 25.7 16.6 37.8l.5 1-42.1 22.7zm-17.8-45.7c5.1 14.6 11.4 29 18.7 42.6l38.1-20.6c-6.2-11.5-11.5-23.6-15.8-36l-41 14z"/><path fill="#FF344D" d="M160.7 449.3l-45 7.5c2.7 16.3 6.7 32.2 12 47.5l43.1-14.8c-4.4-13-7.8-26.4-10.1-40.2z"/><path fill="#6E6463" d="M127 505.7l-.4-1.1c-5.3-15.4-9.3-31.4-12-47.6l-.2-1.1 47.2-7.9.2 1.1c2.3 13.6 5.6 27 10.1 40l.4 1.1-45.3 15.5zm-10-48c2.6 15.3 6.4 30.5 11.4 45.1l41-14.1c-4.2-12.4-7.4-25.2-9.6-38.1l-42.8 7.1z"/><path fill="#352420" d="M157.3 408h-45.6c0 16.6 1.4 32.9 4 48.8l45-7.5c-2.3-13.5-3.4-27.2-3.4-41.3z"/><path fill="#6E6463" d="M114.8 458.1l-.2-1.1c-2.7-16.2-4-32.6-4-49v-1.1h47.9v1.1c0 13.7 1.1 27.5 3.4 41.1l.2 1.1-47.3 7.9zm-2-49c.1 15.5 1.3 31 3.8 46.3l42.7-7.1c-2.1-12.9-3.2-26.1-3.2-39.2h-43.3z"/><path fill="#FF344D" d="M238.2 592.5L207.3 626c12 11 24.9 21.1 38.6 30.1l24.9-38.2c-11.5-7.6-22.5-16.1-32.6-25.4z"/><path fill="#6E6463" d="M246.3 657.7l-1-.6c-13.7-9-26.7-19.1-38.7-30.2l-.8-.8 32.4-35.2.8.8c10.1 9.3 21 17.8 32.5 25.3l1 .6-26.2 40.1zm-37.4-31.8c11.4 10.4 23.7 20 36.7 28.6l23.7-36.3c-10.9-7.2-21.3-15.3-31-24.2l-29.4 31.9z"/><path fill="#FF344D" d="M307.3 637.6L289 679.4c14.8 6.5 30.3 11.9 46.3 15.9l11.2-44.2c-13.6-3.4-26.7-7.9-39.2-13.5z"/><path fill="#6E6463" d="M336.1 696.7l-1.1-.3c-15.8-4-31.5-9.4-46.5-16l-1-.5 19.2-43.8 1 .5c12.6 5.5 25.7 10 39 13.4l1.1.3-11.7 46.4zm-45.6-17.9c14.2 6.2 29 11.3 44 15.1l10.6-42c-12.7-3.3-25.2-7.6-37.2-12.8l-17.4 39.7z"/><path fill="#352420" d="M270.9 617.9L246 656.1c13.6 8.9 28 16.7 43 23.3l18.3-41.8c-12.8-5.5-24.9-12.2-36.4-19.7z"/><path fill="#6E6463" d="M289.5 680.9l-1-.5c-15-6.6-29.5-14.5-43.2-23.4l-1-.6 26.2-40.1 1 .6c11.5 7.5 23.7 14.1 36.2 19.7l1 .5-19.2 43.8zm-42-25.2c13 8.4 26.7 15.9 40.9 22.2l17.4-39.7c-12-5.3-23.6-11.6-34.6-18.7l-23.7 36.2z"/><path fill="#352420" d="M210.1 562l-36 28c10.1 12.9 21.1 24.9 33.2 36l30.9-33.5c-10.2-9.4-19.6-19.6-28.1-30.5z"/><path fill="#6E6463" d="M207.4 627.6l-.8-.8c-12-11.1-23.2-23.2-33.3-36.1l-.7-.9 37.8-29.4.7.9c8.4 10.8 17.8 21 27.9 30.3l.8.8-32.4 35.2zm-31.6-37.4c9.5 12.2 20.1 23.6 31.5 34.2l29.3-31.9c-9.6-8.9-18.6-18.7-26.6-28.9l-34.2 26.6z"/><path fill="#222" d="M302 245.8l-31.2-47.7c-11.6 7.6-22.5 16.1-32.7 25.5l38.6 41.9c7.9-7.2 16.4-13.8 25.3-19.7z"/><path fill="#FFF" d="M276.7 267.1l-40.1-43.6.8-.8c10.2-9.4 21.2-18 32.8-25.6l1-.6 32.4 49.6-1 .6c-8.9 5.8-17.4 12.4-25.1 19.5l-.8.9zm-36.9-43.5l37.1 40.3c7.3-6.7 15.2-12.8 23.6-18.4l-29.9-45.8c-10.9 7.1-21.2 15.2-30.8 23.9z"/><path fill="#2C2C2C" d="M247.9 224c6.7-5.8 13.7-11.3 21-16.4l23.7 36.3c-5.3 3.7-10.5 7.7-15.4 12L247.9 224z"/><path fill="#CA2342" d="M392 215l-4.7-56.8c-14 1.1-27.6 3.4-40.9 6.8l14 55.3c10.3-2.7 20.8-4.4 31.6-5.3z"/><path fill="#FFF" d="M359.6 221.5L345 164l1.1-.3c13.4-3.4 27.2-5.7 41-6.8l1.1-.1 4.9 59.1-1.1.1c-10.7.9-21.3 2.6-31.4 5.2l-1 .3zm-11.8-55.8l13.4 53.1c9.5-2.3 19.4-4 29.5-4.9l-4.5-54.6c-12.9 1.2-25.8 3.3-38.4 6.4z"/><path fill="#E72D4C" d="M354.8 170c8.6-1.9 17.4-3.4 26.3-4.4l3.6 43.2c-6.5.8-12.9 1.8-19.2 3.2l-10.7-42z"/><path fill="#222" d="M360.4 220.2l-14-55.3c-13.5 3.4-26.6 7.9-39.2 13.5l22.9 52.2c9.8-4.3 19.9-7.8 30.3-10.4z"/><path fill="#FFF" d="M329.6 232.1l-23.8-54.3 1-.5c12.7-5.6 25.9-10.1 39.4-13.5l1.1-.3 14.6 57.5-1.1.3c-10.2 2.6-20.3 6-30.1 10.4l-1.1.4zm-20.8-53.2l22 50.1c9.2-4 18.7-7.3 28.3-9.7l-13.4-53.1c-12.6 3.3-25 7.6-36.9 12.7z"/><path fill="#2C2C2C" d="M316.3 182c8.2-3.3 16.7-6.2 25.2-8.7l10.6 42c-6.2 1.8-12.4 3.9-18.4 6.3L316.3 182z"/><path fill="#CA2342" d="M330.2 230.6l-22.9-52.2c-12.7 5.6-24.9 12.2-36.4 19.7l31.2 47.7c8.8-5.8 18.2-10.9 28.1-15.2z"/><path fill="#FFF" d="M301.7 247.4l-32.4-49.6 1-.6c11.6-7.6 23.9-14.3 36.6-19.8l1-.5 23.8 54.3-1 .5c-9.7 4.3-19.1 9.4-28 15.2l-1 .5zm-29.3-49l29.9 45.8c8.4-5.4 17.2-10.2 26.3-14.3l-22-50.1c-11.8 5.3-23.3 11.6-34.2 18.6z"/><path fill="#E72D4C" d="M280.4 200.2c7.6-4.7 15.4-8.9 23.4-12.7l17.4 39.7c-5.8 2.8-11.6 5.9-17.1 9.3l-23.7-36.3z"/><path fill="#222" d="M224.8 345.1l-54-18.5c-4.4 12.9-7.8 26.4-10.1 40.2l56.2 9.4c1.8-10.7 4.4-21.1 7.9-31.1z"/><path fill="#FFF" d="M217.9 377.4l-58.5-9.8.2-1.1c2.3-13.7 5.7-27.3 10.2-40.3l.4-1.1 56.1 19.3-.4 1.1c-3.4 10-6.1 20.4-7.8 30.8l-.2 1.1zM162 365.8l54 9c1.7-9.8 4.1-19.5 7.3-29L171.5 328c-4.1 12.3-7.3 25-9.5 37.8z"/><path fill="#2C2C2C" d="M168.6 361.1c1.7-8.7 3.9-17.4 6.5-25.8l41 14.1c-1.9 6.2-3.5 12.5-4.8 18.9l-42.7-7.2z"/><path fill="#00B8B9" d="M408 214.3c5.4 0 10.7.3 16 .7l4.7-56.8c-6.8-.6-13.7-.9-20.7-.9s-13.9.3-20.7.9L392 215c5.3-.5 10.6-.7 16-.7z"/><path fill="#FFF" d="M391 216.2l-4.9-59.1 1.1-.1c7-.6 14-.9 20.8-.9 6.8 0 13.8.3 20.8.9l1.1.1-4.9 59.1-1.1-.1c-5.8-.5-11-.7-15.9-.7s-10.1.2-15.9.7l-1.1.1zm17-3.1c4.6 0 9.5.2 15 .6l4.5-54.6c-6.5-.5-13.1-.8-19.5-.8s-12.9.3-19.5.8l4.5 54.6c5.5-.4 10.4-.6 15-.6z"/><path fill="#00B1AE" d="M417.7 207.7c-3.4-.2-6.6-.3-9.7-.3-3.1 0-6.3.1-9.7.3l-3.6-43.2c4.5-.2 8.9-.4 13.3-.4s8.8.1 13.3.4l-3.6 43.2z"/><path fill="#CA2342" d="M237.6 315.8l-50.1-27.1c-6.5 12.1-12.1 24.8-16.6 37.9l54 18.5c3.4-10.2 7.6-20 12.7-29.3z"/><path fill="#FFF" d="M225.5 346.5l-56.1-19.3.4-1.1c4.5-13.1 10.1-25.9 16.7-38.1l.5-1 52.1 28.2-.5 1c-5 9.1-9.2 18.9-12.7 29.1l-.4 1.2zm-53.2-20.6l51.8 17.8c3.3-9.6 7.4-18.8 12-27.4l-48.1-26c-6.2 11.3-11.5 23.3-15.7 35.6z"/><path fill="#E72D4C" d="M179.6 322.4c3.1-8.3 6.7-16.5 10.7-24.4l38.1 20.6c-2.9 5.8-5.5 11.7-7.8 17.9l-41-14.1z"/><path fill="#CA2342" d="M276.8 265.5l-38.6-41.9c-10.2 9.4-19.6 19.5-28.1 30.5l45 35c6.6-8.5 13.8-16.4 21.7-23.6z"/><path fill="#FFF" d="M255.3 290.6l-46.8-36.4.7-.9c8.5-10.9 18-21.2 28.2-30.6l.8-.8 40.1 43.6-.8.8c-7.7 7.1-14.9 15-21.5 23.4l-.7.9zm-43.6-36.8l43.2 33.6c6.2-7.9 13-15.3 20.2-22L238 225.1c-9.4 8.9-18.3 18.5-26.3 28.7z"/><path fill="#E72D4C" d="M219.8 252.9c5.6-6.8 11.7-13.4 18-19.6l29.4 31.9c-4.6 4.5-9 9.3-13.2 14.3l-34.2-26.6z"/><path fill="#222" d="M255.1 289l-45-35c-8.5 10.9-16.1 22.4-22.7 34.6l50.1 27.1c5.2-9.4 11.1-18.3 17.6-26.7z"/><path fill="#FFF" d="M238 317.3l-52.1-28.2.5-1c6.6-12.1 14.2-23.8 22.8-34.8l.7-.9 46.8 36.4-.7.9c-6.6 8.5-12.5 17.5-17.5 26.6l-.5 1zm-49-29.1l48.1 26c4.7-8.6 10.2-17 16.4-25l-43.2-33.6c-7.9 10.3-15.1 21.3-21.3 32.6z"/><path fill="#2C2C2C" d="M196.8 285.9c4.4-7.7 9.3-15.1 14.6-22.3l34.2 26.6c-3.9 5.3-7.4 10.7-10.7 16.3l-38.1-20.6z"/><path fill="#222" d="M599.1 376.1l56.2-9.4c-2.3-13.8-5.7-27.2-10.1-40.2l-54 18.5c3.5 10.1 6.1 20.5 7.9 31.1z"/><path fill="#FFF" d="M598.1 377.4l-.2-1.1c-1.7-10.4-4.3-20.8-7.8-30.8l-.4-1.1 56.1-19.3.4 1.1c4.5 13.1 7.9 26.6 10.2 40.3l.2 1.1-58.5 9.8zm-5.4-31.6c3.2 9.5 5.7 19.2 7.3 29l54-9c-2.2-12.8-5.4-25.5-9.5-37.8l-51.8 17.8z"/><path fill="#2C2C2C" d="M604.6 368.3c-1.3-6.4-2.9-12.7-4.8-18.9l41-14.1c2.6 8.5 4.8 17.1 6.5 25.8l-42.7 7.2z"/><path fill="#CA2342" d="M591.2 345.1l54-18.5c-4.5-13.2-10.1-25.8-16.6-37.9l-50.1 27.1c5 9.3 9.2 19.1 12.7 29.3z"/><path fill="#FFF" d="M590.5 346.5l-.4-1.1c-3.5-10.2-7.8-20-12.7-29.1l-.5-1 52.1-28.2.5 1c6.6 12.2 12.2 25 16.7 38.1l.4 1.1-56.1 19.2zM580 316.2c4.6 8.6 8.6 17.8 12 27.4l51.8-17.8c-4.3-12.3-9.5-24.3-15.7-35.7L580 316.2z"/><path fill="#E72D4C" d="M595.4 336.4c-2.3-6.1-4.9-12.1-7.8-17.9l38.1-20.6c4 7.9 7.6 16.1 10.7 24.4l-41 14.1z"/><path fill="#CA2342" d="M601.7 408h57c0-14.1-1.2-27.8-3.4-41.3l-56.2 9.4c1.7 10.4 2.6 21 2.6 31.9z"/><path fill="#FFF" d="M659.9 409.1h-59.3V408c0-10.5-.9-21.1-2.6-31.7l-.2-1.1 58.5-9.8.2 1.1c2.3 13.7 3.4 27.6 3.4 41.5v1.1zm-57-2.2h54.7c-.1-12.9-1.1-26-3.2-38.8l-54 9c1.6 9.9 2.4 19.9 2.5 29.8z"/><path fill="#E72D4C" d="M608.5 401.2c-.2-6.4-.8-12.9-1.6-19.4l42.8-7.1c1.2 8.8 1.9 17.7 2.2 26.5h-43.4z"/><path fill="#CA2342" d="M216.9 376.1l-56.2-9.4c-2.2 13.4-3.4 27.2-3.4 41.3h57c0-10.9.9-21.5 2.6-31.9z"/><path fill="#FFF" d="M215.4 409.1h-59.3V408c0-13.8 1.1-27.8 3.4-41.5l.2-1.1 58.5 9.8-.2 1.1c-1.8 10.6-2.6 21.3-2.6 31.7v1.1zm-57-2.2h54.7c.1-9.8.9-19.9 2.5-29.8l-54-9c-2 12.8-3.1 25.8-3.2 38.8z"/><g><path fill="#E72D4C" d="M164.2 401.2c.2-8.9 1-17.7 2.2-26.5l42.8 7.1c-.9 6.5-1.4 13-1.6 19.4h-43.4z"/></g><g><path fill="#222" d="M578.4 315.8l50.1-27.1c-6.6-12.2-14.2-23.8-22.7-34.6l-45 35c6.6 8.3 12.5 17.2 17.6 26.7z"/><path fill="#FFF" d="M578 317.3l-.5-1c-4.9-9.1-10.8-18.1-17.5-26.6l-.7-.9 46.8-36.4.7.9c8.5 11 16.2 22.7 22.8 34.8l.5 1-52.1 28.2zm-15.5-28.1c6.2 8 11.7 16.4 16.4 25l48.1-26c-6.2-11.3-13.4-22.3-21.3-32.6l-43.2 33.6z"/></g><g><path fill="#2C2C2C" d="M581.1 306.6c-3.3-5.5-6.8-11-10.7-16.3l34.2-26.6c5.3 7.2 10.2 14.6 14.6 22.3l-38.1 20.6z"/></g><g><path fill="#CA2342" d="M560.9 289l45-35c-8.5-10.9-17.9-21.1-28.1-30.5l-38.6 41.9c7.9 7.3 15.1 15.2 21.7 23.6z"/><path fill="#FFF" d="M560.7 290.6l-.7-.9c-6.6-8.4-13.8-16.3-21.5-23.4l-.8-.8 40.1-43.6.8.8c10.2 9.4 19.7 19.7 28.2 30.6l.7.9-46.8 36.4zm-19.9-25.2c7.2 6.7 14 14.1 20.2 22l43.2-33.6c-8-10.2-16.9-19.8-26.4-28.6l-37 40.2z"/></g><g><path fill="#E72D4C" d="M562 279.5c-4.2-5-8.6-9.8-13.2-14.3l29.4-31.9c6.4 6.2 12.4 12.8 18 19.6L562 279.5z"/></g><g><path fill="#CA2342" d="M514 245.8l31.2-47.7c-11.5-7.5-23.7-14.2-36.4-19.7l-22.9 52.2c9.8 4.3 19.2 9.4 28.1 15.2z"/><path fill="#FFF" d="M514.3 247.4l-1-.6c-8.9-5.8-18.3-10.9-28-15.2l-1-.5 23.8-54.3 1 .5c12.7 5.6 25 12.2 36.6 19.8l1 .6-32.4 49.7zm-27-17.4c9.1 4.1 17.9 8.8 26.3 14.3l29.9-45.8c-10.9-7.1-22.4-13.3-34.2-18.6l-22 50.1z"/></g><g><path fill="#E72D4C" d="M511.9 236.5c-5.6-3.4-11.3-6.5-17.1-9.3l17.4-39.7c8 3.8 15.9 8 23.4 12.7l-23.7 36.3z"/></g><g><path fill="#CA2342" d="M455.6 220.2l14-55.3c-13.2-3.3-26.9-5.6-40.9-6.8L424 215c10.8.9 21.3 2.6 31.6 5.2z"/><path fill="#FFF" d="M456.4 221.5l-1.1-.3c-10.1-2.5-20.6-4.3-31.4-5.2l-1.1-.1 4.9-59.1 1.1.1c13.8 1.1 27.7 3.4 41 6.8l1.1.3-14.5 57.5zm-31.2-7.6c10.1.9 20 2.5 29.5 4.9l13.4-53.1c-12.6-3.1-25.5-5.2-38.4-6.4l-4.5 54.6z"/></g><g><path fill="#E72D4C" d="M450.6 212c-6.3-1.3-12.7-2.4-19.2-3.2l3.6-43.2c8.8 1 17.6 2.4 26.3 4.4l-10.7 42z"/></g><g><path fill="#222" d="M485.8 230.6l22.9-52.2c-12.6-5.5-25.6-10-39.2-13.5l-14 55.3c10.5 2.6 20.6 6.1 30.3 10.4z"/><path fill="#FFF" d="M486.4 232.1l-1-.5c-9.8-4.3-19.9-7.8-30.1-10.4l-1.1-.3 14.6-57.5 1.1.3c13.4 3.4 26.6 7.9 39.4 13.5l1 .5-23.9 54.4zM457 219.3c9.6 2.5 19.1 5.7 28.3 9.7l22-50.1c-11.9-5.2-24.3-9.4-36.8-12.7L457 219.3z"/></g><g><path fill="#2C2C2C" d="M482.3 221.7c-6.1-2.4-12.2-4.5-18.4-6.3l10.6-42c8.5 2.4 17 5.3 25.2 8.7l-17.4 39.6z"/></g><g><path fill="#222" d="M539.2 265.5l38.6-41.9c-10.1-9.3-21.1-17.9-32.7-25.5L514 245.8c8.9 5.9 17.4 12.5 25.2 19.7z"/><path fill="#FFF" d="M539.3 267.1l-.8-.8c-7.7-7.1-16.2-13.7-25.1-19.5l-1-.6 32.4-49.6 1 .6c11.6 7.6 22.6 16.2 32.8 25.6l.8.8-40.1 43.5zm-23.8-21.6c8.4 5.5 16.3 11.7 23.6 18.4l37.1-40.3c-9.6-8.7-19.9-16.8-30.7-23.9l-30 45.8z"/></g><g><path fill="#2C2C2C" d="M538.7 255.9c-4.9-4.2-10-8.2-15.4-12l23.7-36.3c7.3 5.1 14.3 10.5 21 16.4l-29.3 31.9z"/></g><g><path fill="#CA2342" d="M276.8 550.5l-38.6 41.9c10.1 9.3 21.1 17.9 32.7 25.5l31.2-47.7c-9-5.9-17.5-12.5-25.3-19.7z"/><path fill="#FFF" d="M271.2 619.5l-1-.6c-11.6-7.6-22.6-16.2-32.8-25.6l-.8-.8 40.1-43.6.8.8c7.7 7.1 16.2 13.7 25.1 19.5l1 .6-32.4 49.7zm-31.4-27.1c9.6 8.7 19.9 16.8 30.7 23.9l29.9-45.8c-8.4-5.5-16.3-11.7-23.6-18.4l-37 40.3z"/></g><g><path fill="#E72D4C" d="M268.9 608.4c-7.3-5.1-14.3-10.5-21-16.4l29.4-31.9c4.9 4.2 10 8.2 15.4 12l-23.8 36.3z"/></g><g><path fill="#CA2342" d="M514 570.2l31.2 47.7c11.6-7.6 22.5-16.1 32.7-25.5l-38.6-41.9c-7.9 7.2-16.4 13.8-25.3 19.7z"/><path fill="#FFF" d="M544.8 619.5l-32.4-49.6 1-.6c8.9-5.8 17.4-12.4 25.1-19.5l.8-.8 40.1 43.6-.8.8c-10.2 9.4-21.2 18-32.8 25.6l-1 .5zm-29.3-49l29.9 45.8c10.8-7.2 21.1-15.2 30.7-23.9L539 552.1c-7.2 6.7-15.1 12.9-23.5 18.4z"/></g><g><path fill="#E72D4C" d="M523.4 572.1c5.3-3.7 10.5-7.7 15.4-12l29.4 31.9c-6.7 5.8-13.7 11.3-21 16.4l-23.8-36.3z"/></g><g><path fill="#222" d="M539.2 550.5l38.6 41.9c10.2-9.4 19.6-19.5 28.1-30.5l-45-35c-6.6 8.5-13.8 16.4-21.7 23.6z"/><path fill="#FFF" d="M577.7 594.1l-40.1-43.6.8-.8c7.7-7.1 15-15 21.5-23.4l.7-.9 46.8 36.4-.7.9c-8.5 10.9-18 21.2-28.2 30.6l-.8.8zm-36.9-43.5l37.1 40.3c9.5-8.8 18.4-18.5 26.4-28.6l-43.2-33.6c-6.3 7.8-13.1 15.2-20.3 21.9z"/></g><g><path fill="#2C2C2C" d="M548.8 550.8c4.6-4.5 9-9.3 13.2-14.3l34.2 26.6c-5.6 6.8-11.7 13.4-18 19.6l-29.4-31.9z"/></g><g><path fill="#222" d="M485.8 585.4l22.9 52.2c12.7-5.6 24.9-12.2 36.4-19.7L514 570.2c-8.9 5.8-18.3 10.9-28.2 15.2z"/><path fill="#FFF" d="M508.1 639.2l-23.8-54.3 1-.5c9.7-4.3 19.1-9.4 28-15.2l1-.6 32.4 49.6-1 .6c-11.6 7.6-23.9 14.3-36.6 19.8l-1 .6zM487.3 586l22 50.1c11.8-5.3 23.4-11.5 34.2-18.6l-29.9-45.8c-8.4 5.5-17.2 10.3-26.3 14.3z"/></g><g><path fill="#2C2C2C" d="M494.8 588.8c5.8-2.8 11.6-5.9 17.1-9.3l23.7 36.3c-7.6 4.7-15.4 8.9-23.4 12.7l-17.4-39.7z"/></g><g><path fill="#CA2342" d="M455.6 595.8l14 55.3c13.5-3.4 26.6-7.9 39.2-13.5l-22.9-52.2c-9.8 4.3-19.9 7.8-30.3 10.4z"/><path fill="#FFF" d="M468.7 652.5L454.2 595l1.1-.3c10.2-2.6 20.3-6 30.1-10.4l1-.5 23.8 54.3-1 .5c-12.7 5.6-26 10.1-39.4 13.5l-1.1.4zM457 596.7l13.4 53.1c12.5-3.2 24.9-7.5 36.8-12.7l-22-50.1c-9.2 3.9-18.7 7.2-28.2 9.7z"/></g><g><path fill="#E72D4C" d="M463.8 600.7c6.2-1.8 12.4-3.9 18.4-6.3l17.4 39.7c-8.2 3.3-16.7 6.2-25.2 8.7l-10.6-42.1z"/></g><g><path fill="#CA2342" d="M560.9 527l45 35c8.5-10.9 16.1-22.4 22.7-34.6l-50.1-27.1c-5.2 9.4-11.1 18.3-17.6 26.7z"/><path fill="#FFF" d="M606.1 563.6l-46.8-36.4.7-.9c6.6-8.5 12.5-17.5 17.5-26.6l.5-1 52.1 28.2-.5 1c-6.6 12.1-14.2 23.8-22.8 34.8l-.7.9zm-43.6-36.8l43.2 33.6c8-10.3 15.1-21.3 21.3-32.6l-48.1-26c-4.7 8.5-10.3 16.9-16.4 25z"/></g><g><path fill="#E72D4C" d="M570.4 525.7c3.9-5.3 7.4-10.7 10.7-16.3l38.1 20.6c-4.4 7.7-9.3 15.1-14.6 22.3l-34.2-26.6z"/></g><g><path fill="#222" d="M214.3 408h-57c0 14.1 1.2 27.8 3.4 41.3l56.2-9.4c-1.7-10.4-2.6-21-2.6-31.9z"/><path fill="#FFF" d="M159.7 450.6l-.2-1.1c-2.3-13.7-3.4-27.6-3.4-41.5v-1.1h59.3v1.1c0 10.5.9 21.1 2.6 31.7l.2 1.1-58.5 9.8zm-1.3-41.5c.1 12.9 1.1 26 3.2 38.8l54-9c-1.6-10-2.4-20-2.5-29.8h-54.7z"/></g><g><path fill="#2C2C2C" d="M166.4 441.4c-1.2-8.8-1.9-17.7-2.2-26.5h43.3c.2 6.4.8 12.9 1.6 19.4l-42.7 7.1z"/></g><g><path fill="#222" d="M601.7 408c0 10.9-.9 21.5-2.7 31.9l56.2 9.4c2.2-13.4 3.4-27.2 3.4-41.3h-56.9z"/><path fill="#FFF" d="M656.3 450.6l-58.5-9.8.2-1.1c1.8-10.6 2.6-21.2 2.6-31.7v-1.1h59.3v1.1c0 13.8-1.1 27.8-3.4 41.5l-.2 1.1zm-55.9-11.7l54 9c2.1-12.8 3.1-25.9 3.2-38.8h-54.7c-.1 9.9-.9 19.9-2.5 29.8z"/></g><g><path fill="#2C2C2C" d="M606.8 434.2c.9-6.5 1.4-13 1.6-19.4h43.3c-.2 8.9-1 17.7-2.2 26.5l-42.7-7.1z"/></g><g><path fill="#CA2342" d="M591.2 470.9l54 18.5c4.4-12.9 7.8-26.4 10.1-40.2l-56.2-9.4c-1.8 10.7-4.4 21.1-7.9 31.1z"/><path fill="#FFF" d="M645.9 490.9l-56.1-19.3.4-1.1c3.4-10 6.1-20.4 7.8-30.8l.2-1.1 58.5 9.8-.2 1.1c-2.3 13.7-5.7 27.3-10.2 40.3l-.4 1.1zm-53.2-20.7l51.8 17.8c4.1-12.2 7.3-24.9 9.5-37.8l-54-9c-1.7 9.8-4.1 19.5-7.3 29z"/></g><g><path fill="#E72D4C" d="M599.8 466.6c1.9-6.2 3.5-12.5 4.8-18.9l42.8 7.1c-1.7 8.7-3.9 17.4-6.5 25.8l-41.1-14z"/></g><g><path fill="#222" d="M578.4 500.2l50.1 27.1c6.5-12.1 12.1-24.8 16.6-37.9l-54-18.5c-3.4 10.2-7.6 20-12.7 29.3z"/><path fill="#FFF" d="M629 528.9l-52.1-28.2.5-1c5-9.1 9.2-18.9 12.7-29.1l.4-1.1 56.1 19.3-.4 1.1c-4.5 13.1-10.1 25.9-16.7 38.1l-.5.9zm-49-29.1l48.1 26c6.1-11.4 11.4-23.4 15.7-35.7L592 472.3c-3.4 9.6-7.4 18.8-12 27.5z"/></g><g><path fill="#2C2C2C" d="M587.6 497.4c2.9-5.8 5.5-11.7 7.8-17.9l41 14.1c-3.1 8.3-6.7 16.5-10.7 24.4l-38.1-20.6z"/></g><g><path fill="#222" d="M302 570.2l-31.2 47.7c11.5 7.5 23.7 14.2 36.4 19.7l22.9-52.2c-9.8-4.3-19.2-9.4-28.1-15.2z"/><path fill="#FFF" d="M307.9 639.2l-1-.5c-12.7-5.6-25-12.2-36.6-19.8l-1-.6 32.4-49.6 1 .6c8.9 5.8 18.3 10.9 28 15.2l1 .5-23.8 54.2zm-35.5-21.6c10.9 7.1 22.4 13.3 34.2 18.6l22-50.1c-9.1-4.1-17.9-8.8-26.3-14.3l-29.9 45.8z"/></g><g><path fill="#2C2C2C" d="M303.8 628.5c-8-3.8-15.9-8-23.4-12.7l23.7-36.3c5.6 3.4 11.3 6.5 17.1 9.3l-17.4 39.7z"/></g><g><path fill="#222" d="M224.8 470.9l-54 18.5c4.5 13.2 10.1 25.8 16.6 37.9l50.1-27.1c-5-9.3-9.2-19.1-12.7-29.3z"/><path fill="#FFF" d="M187 528.9l-.5-1c-6.6-12.2-12.2-25-16.7-38.1l-.4-1.1 56.1-19.3.4 1.1c3.5 10.2 7.8 20 12.7 29.1l.5 1-52.1 28.3zm-14.7-38.8c4.3 12.3 9.5 24.3 15.7 35.7l48.1-26c-4.6-8.6-8.6-17.8-12-27.4l-51.8 17.7z"/></g><g><path fill="#2C2C2C" d="M190.3 518c-4-7.9-7.6-16.1-10.7-24.4l41-14.1c2.3 6.1 4.9 12.1 7.8 17.9L190.3 518z"/></g><g><path fill="#CA2342" d="M237.6 500.2l-50.1 27.1c6.6 12.2 14.2 23.8 22.7 34.6l45-35c-6.6-8.3-12.5-17.2-17.6-26.7z"/><path fill="#FFF" d="M209.9 563.6l-.7-.9c-8.5-11-16.2-22.7-22.8-34.8l-.5-1 52.1-28.2.5 1c4.9 9.1 10.8 18.1 17.5 26.6l.7.9-46.8 36.4zM189 527.8c6.2 11.3 13.4 22.3 21.3 32.6l43.2-33.6c-6.2-8-11.7-16.4-16.4-25l-48.1 26z"/></g><g><path fill="#E72D4C" d="M211.4 552.3c-5.3-7.2-10.2-14.6-14.6-22.3l38.1-20.6c3.3 5.5 6.8 11 10.7 16.3l-34.2 26.6z"/></g><g><path fill="#222" d="M255.1 527l-45 35c8.5 10.9 17.9 21.1 28.1 30.5l38.6-41.9c-7.9-7.3-15.1-15.2-21.7-23.6z"/><path fill="#FFF" d="M238.3 594.1l-.8-.8c-10.2-9.4-19.7-19.7-28.2-30.6l-.7-.9 46.8-36.4.7.9c6.6 8.4 13.8 16.3 21.5 23.4l.8.8-40.1 43.6zm-26.6-31.9c8 10.2 16.9 19.8 26.4 28.6l37.1-40.3c-7.2-6.7-14-14.1-20.2-22l-43.3 33.7z"/></g><g><path fill="#2C2C2C" d="M237.9 582.7c-6.4-6.2-12.4-12.8-18-19.6l34.2-26.6c4.2 5 8.6 9.8 13.2 14.3l-29.4 31.9z"/></g><g><path fill="#222" d="M424 601l4.7 56.8c14-1.1 27.6-3.4 40.9-6.8l-14-55.3c-10.3 2.7-20.8 4.4-31.6 5.3z"/><path fill="#FFF" d="M427.7 659.1l-4.9-59.1 1.1-.1c10.7-.9 21.3-2.6 31.4-5.2l1.1-.3 14.6 57.5-1.1.3c-13.4 3.4-27.2 5.7-41 6.8l-1.2.1zm-2.5-57l4.5 54.6c13-1.1 25.9-3.3 38.4-6.4l-13.4-53.1c-9.5 2.4-19.4 4-29.5 4.9z"/></g><g><path fill="#2C2C2C" d="M431.4 607.2c6.5-.8 12.9-1.8 19.2-3.2l10.6 42c-8.6 1.9-17.4 3.4-26.3 4.4l-3.5-43.2z"/></g><g><path fill="#CA2342" d="M216.9 439.9l-56.2 9.4c2.3 13.8 5.7 27.2 10.1 40.2l54-18.5c-3.5-10.1-6.1-20.5-7.9-31.1z"/><path fill="#FFF" d="M170.1 490.9l-.4-1.1c-4.5-13.1-7.9-26.6-10.2-40.3l-.2-1.1 58.5-9.8.2 1.1c1.7 10.4 4.3 20.8 7.8 30.8l.4 1.1-56.1 19.3zm-8.1-40.7c2.2 12.8 5.4 25.5 9.5 37.8l51.8-17.8c-3.2-9.5-5.7-19.2-7.3-29l-54 9z"/></g><g><path fill="#E72D4C" d="M175.1 480.7c-2.6-8.5-4.8-17.1-6.5-25.8l42.8-7.1c1.3 6.4 2.9 12.7 4.8 18.9l-41.1 14z"/></g><g><path fill="#00B8B9" d="M408 601.7c-5.4 0-10.7-.3-16-.7l-4.7 56.8c6.8.6 13.7.9 20.7.9s13.9-.3 20.7-.9L424 601c-5.3.5-10.6.7-16 .7z"/><path fill="#FFF" d="M408 659.9c-6.8 0-13.8-.3-20.8-.9l-1.1-.1 4.9-59.1 1.1.1c5.8.5 11 .7 15.9.7s10.1-.2 15.9-.7l1.1-.1 4.9 59.1-1.1.1c-7 .6-14 .9-20.8.9zm-19.5-3.1c6.5.5 13.1.8 19.5.8s12.9-.3 19.5-.8l-4.5-54.6c-5.4.4-10.3.6-15 .6-4.6 0-9.5-.2-15-.6l-4.5 54.6z"/></g><g><path fill="#00B1AE" d="M408 651.9c-4.4 0-8.8-.1-13.3-.4l3.6-43.2c3.4.2 6.6.3 9.7.3 3.1 0 6.3-.1 9.7-.3l3.6 43.2c-4.5.3-8.9.4-13.3.4z"/></g><g><path fill="#222" d="M360.4 595.8l-14 55.3c13.2 3.3 26.9 5.6 40.9 6.8L392 601c-10.8-.9-21.3-2.6-31.6-5.2z"/><path fill="#FFF" d="M388.3 659.1l-1.1-.1c-13.8-1.1-27.7-3.4-41-6.8l-1.1-.3 14.6-57.5 1.1.3c10.1 2.5 20.6 4.3 31.4 5.2l1.1.1-5 59.1zm-40.5-8.8c12.6 3.1 25.5 5.2 38.4 6.4l4.5-54.6c-10.1-.9-20-2.5-29.5-4.9l-13.4 53.1z"/></g><g><path fill="#2C2C2C" d="M381.1 650.4c-8.8-1-17.6-2.4-26.3-4.4l10.6-42c6.3 1.4 12.7 2.4 19.2 3.2l-3.5 43.2z"/></g><g><path fill="#CA2342" d="M330.2 585.4l-22.9 52.2c12.6 5.5 25.6 10 39.2 13.5l14-55.3c-10.5-2.6-20.6-6.1-30.3-10.4z"/><path fill="#FFF" d="M347.3 652.5l-1.1-.3c-13.4-3.4-26.6-7.9-39.4-13.5l-1-.5 23.8-54.3 1 .5c9.8 4.3 19.9 7.8 30.1 10.4l1.1.3-14.5 57.4zm-38.5-15.4c11.9 5.2 24.3 9.4 36.8 12.7l13.4-53.1c-9.6-2.5-19.1-5.7-28.3-9.7l-21.9 50.1z"/></g><g><path fill="#E72D4C" d="M341.5 642.7c-8.5-2.4-17-5.3-25.2-8.7l17.4-39.7c6.1 2.4 12.2 4.5 18.4 6.3l-10.6 42.1z"/></g><g><path fill="#DFE0EB" d="M408 602.9c-107.5 0-194.9-87.4-194.9-194.9S300.5 213.1 408 213.1 602.9 300.5 602.9 408 515.5 602.9 408 602.9zm0-382.9c-103.7 0-188 84.4-188 188s84.4 188 188 188 188-84.4 188-188-84.3-188-188-188z"/></g><g><path fill="#514170" d="M408 713.4c-168.4 0-305.4-137-305.4-305.4s137-305.4 305.4-305.4 305.4 137 305.4 305.4-137 305.4-305.4 305.4zm0-599.4c-162.1 0-294 131.9-294 294s131.9 294 294 294 294-131.9 294-294-131.9-294-294-294z"/></g><g><path fill="#514170" d="M408 663.3c-68.2 0-132.3-26.6-180.5-74.8-48.2-48.2-74.8-112.3-74.8-180.5s26.6-132.3 74.8-180.5 112.3-74.8 180.5-74.8 132.3 26.6 180.5 74.8c48.2 48.2 74.8 112.3 74.8 180.5s-26.6 132.3-74.8 180.5c-48.2 48.2-112.3 74.8-180.5 74.8zm0-503.7c-66.4 0-128.8 25.8-175.7 72.8-46.9 46.9-72.8 109.3-72.8 175.7s25.8 128.8 72.8 175.7c46.9 46.9 109.3 72.8 175.7 72.8s128.8-25.8 175.7-72.8c46.9-46.9 72.8-109.3 72.8-175.7s-25.8-128.8-72.8-175.7c-46.9-47-109.3-72.8-175.7-72.8z"/></g><g><g fill="#FFF"><path d="M406.4 141c0 1.6-.6 3-1.7 4.1-1.1 1.1-2.5 1.7-4.1 1.7-1.6 0-3-.6-4.1-1.7s-1.7-2.5-1.7-4.1v-13.3c0-1.6.6-3 1.7-4.1 1.1-1.1 2.5-1.7 4.1-1.7 1.6 0 3 .6 4.1 1.7 1.1 1.1 1.7 2.5 1.7 4.1V141zm-3.8-13.4c0-.6-.2-1.1-.6-1.5-.4-.4-.9-.6-1.5-.6s-1.1.2-1.5.6c-.4.4-.6.9-.6 1.5v13.3c0 .6.2 1.1.6 1.5.4.4.9.6 1.5.6s1.1-.2 1.5-.6c.4-.4.6-.9.6-1.5v-13.3zM421.2 141c0 1.6-.6 3-1.7 4.1-1.1 1.1-2.5 1.7-4.1 1.7-1.6 0-3-.6-4.1-1.7-1.1-1.1-1.7-2.5-1.7-4.1v-13.3c0-1.6.6-3 1.7-4.1 1.1-1.1 2.5-1.7 4.1-1.7 1.6 0 3 .6 4.1 1.7 1.1 1.1 1.7 2.5 1.7 4.1V141zm-3.8-13.4c0-.6-.2-1.1-.6-1.5-.4-.4-.9-.6-1.5-.6s-1.1.2-1.5.6c-.4.4-.6.9-.6 1.5v13.3c0 .6.2 1.1.6 1.5.4.4.9.6 1.5.6s1.1-.2 1.5-.6c.4-.4.6-.9.6-1.5v-13.3z"/></g><path fill="#FFF" d="M402.2 675.1c0-1.6.6-3 1.7-4.1 1.1-1.1 2.5-1.7 4.1-1.7 1.6 0 3 .6 4.1 1.7 1.1 1.1 1.7 2.5 1.7 4.1v13.3c0 1.6-.6 3-1.7 4.1-1.1 1.1-2.5 1.7-4.1 1.7-1.6 0-3-.6-4.1-1.7-1.1-1.1-1.7-2.5-1.7-4.1v-13.3zm3.8 13.3c0 .6.2 1.1.6 1.5.4.4.9.6 1.5.6s1.1-.2 1.5-.6c.4-.4.6-.9.6-1.5v-13.3c0-.6-.2-1.1-.6-1.5-.4-.4-.9-.6-1.5-.6s-1.1.2-1.5.6c-.4.4-.6.9-.6 1.5v13.3z"/></g><g><path fill="#FFF" d="M364.7 150.1l-3.1-18.5-3.1.5-.4-2.5c.9-.2 1.6-.7 2.3-1.4.7-.7 1.1-1.5 1.4-2.3l2.5-.4 4 24-3.6.6zM459.8 682.2c.4 2.3.1 4.1-1 5.5-.9 1.2-2.2 2-3.9 2.3-1.6.3-3-.1-4.3-1.1-1.3-1-2.1-2.3-2.4-3.9-.3-1.6-.2-3.3.3-4.9.3-.9.9-2.5 2.1-4.8.3-.6.7-1.6 1.3-2.9l.5-1.1c.3-.7.6-1.3.7-1.7.1-.2.1-.3.1-.4l-7.1 1.2-.6-3.5L457 665l.6 3.3c0 .1-.2.6-.6 1.5-.2.4-.4.9-.6 1.4l-.7 1.5c-.4.8-1.1 2.2-2 4.1-.9 1.7-1.4 3.3-1.8 4.6-.3 1.1-.3 2.1-.2 3 .1.7.4 1.3.9 1.8s1.2.6 1.9.5c1-.2 1.6-.9 1.9-2.1.1-.4.1-.9 0-1.4l-.2-.9 3.6-.6v.5z"/></g><g fill="#FFF"><path d="M315.8 163.2l-6.1-17.7-3 1-.8-2.4c.8-.4 1.5-1 2.1-1.8.6-.8.9-1.6 1-2.5l2.4-.8 7.9 23-3.5 1.2zM326.3 155.9c1.6-.5 2.1-1.6 1.6-3l-.5-1.4c-.8-2.4-2.5-3.1-4.9-2.3l-1-3c1.3-.5 2.2-1.2 2.6-2.1.4-.9.3-1.9-.1-3.1l-.2-.5c-.5-1.5-1.4-2-2.8-1.6-.7.3-1.2.7-1.3 1.4-.1.5 0 1.1.2 1.8l.2.6-3.4 1.2-.2-.5c-.6-1.6-.6-3.1-.1-4.4.5-1.5 1.7-2.5 3.4-3.1 1.6-.6 3.1-.5 4.5.3 1.2.7 2.1 1.8 2.6 3.3l.3 1c.5 1.4.5 2.8 0 4.2-.2.6-.5 1.1-.9 1.6 1.2.2 2.3.8 3.3 1.8.5.5.9 1.2 1.2 2l.6 1.8c.6 1.7.5 3.3-.3 4.8-.8 1.4-1.9 2.4-3.5 3-1.5.5-3 .4-4.5-.3-1.4-.7-2.4-1.8-2.9-3.3l-.2-.6 3.2-1.4.4.8c.2.6.6 1 1.1 1.2.5-.1 1 0 1.6-.2z"/><g><path d="M500.5 652.7l6.1 17.7 3-1 .8 2.4c-.8.4-1.5 1-2.1 1.8-.6.8-.9 1.6-1 2.5l-2.4.8-7.9-23 3.5-1.2zM497.1 663.3L496 680l-3.5 1.2-5-14.6-2.2.8-1.2-3.5 2.2-.8-1.7-5 3.5-1.2 1.7 5 6.1-2.1 1.2 3.5zm-6.1 2.1l2.5 7.2.4-8.2-2.9 1z"/></g></g><g fill="#FFF"><path d="M275.4 178.4c1.5-.8 1.8-1.9 1.1-3.3l-.7-1.3c-1.2-2.2-2.9-2.7-5.2-1.4l-1.5-2.8c1.2-.7 2-1.5 2.2-2.5.2-.9 0-1.9-.6-3.1l-.3-.5c-.8-1.4-1.8-1.8-3-1.1-.7.4-1 .9-1.1 1.6 0 .5.1 1.1.5 1.7l.3.6-3.2 1.7-.3-.5c-.8-1.5-1.1-3-.9-4.4.3-1.6 1.2-2.8 2.8-3.6 1.5-.8 3-1 4.5-.4 1.3.5 2.4 1.4 3.1 2.8l.5.9c.7 1.3.9 2.7.7 4.1-.1.6-.3 1.2-.6 1.7 1.2 0 2.4.4 3.5 1.2.6.4 1.1 1 1.5 1.8l.9 1.7c.9 1.6 1 3.2.5 4.8-.5 1.5-1.5 2.7-2.9 3.5-1.4.8-2.9.9-4.4.5-1.5-.5-2.7-1.4-3.4-2.8l-.3-.5 2.9-1.9.5.7c.3.5.8.8 1.3 1 .5.2 1.1.1 1.6-.2zM282.9 157.5l-.3-.5c-.3-.5-.7-.9-1.1-1.1-.5-.2-1-.2-1.5.1-.5.3-.8.7-.9 1.2-.1.5 0 1 .3 1.6l2.3 4.3c.4-1.1 1-1.8 1.9-2.3 1.4-.8 2.8-.9 4-.2 1.1.5 2.1 1.6 2.9 3.1l2 3.7c.7 1.4.8 2.8.4 4.2-.4 1.4-1.3 2.5-2.6 3.2-1.4.8-2.9.9-4.3.4s-2.5-1.4-3.3-2.9l-6.3-11.7c-.6-1-.8-2.1-.8-3.2.1-1.1.4-2.1 1.1-3 .4-.6 1-1.1 1.7-1.5 1.4-.8 2.9-.9 4.4-.4 1.4.5 2.5 1.4 3.3 2.9l.2.5-3.4 1.6zm2.9 12.9c.3.5.6.9 1.1 1.1.5.2 1 .2 1.5-.1.5-.3.8-.7.9-1.2.1-.5 0-1-.3-1.5l-2.1-4c-.3-.6-.8-1-1.5-1.2-.3-.1-.7 0-1.1.2-.6.3-.9.8-.9 1.4 0 .5.1 1 .3 1.4l2.1 3.9z"/><g><path d="M540.7 637.5c-1.5.8-1.8 1.9-1.1 3.3l.7 1.3c1.2 2.2 2.9 2.7 5.2 1.4l1.5 2.8c-1.2.7-2 1.5-2.2 2.5-.2.9 0 1.9.6 3.1l.3.5c.8 1.4 1.8 1.8 3 1.1.7-.4 1-.9 1.1-1.6 0-.5-.1-1.1-.5-1.7l-.3-.6 3.2-1.7.3.5c.8 1.5 1.1 3 .9 4.4-.3 1.6-1.2 2.8-2.8 3.6-1.5.8-3 1-4.5.4-1.3-.5-2.4-1.4-3.1-2.8l-.5-.9c-.7-1.3-.9-2.7-.7-4.1.1-.6.3-1.2.6-1.7-1.2 0-2.4-.4-3.5-1.2-.6-.4-1.1-1-1.5-1.8l-.9-1.7c-.9-1.6-1-3.2-.5-4.8.5-1.5 1.5-2.7 2.9-3.5 1.4-.8 2.9-.9 4.4-.5 1.5.5 2.7 1.4 3.4 2.8l.3.5-3 1.9-.5-.7c-.3-.5-.8-.8-1.3-1-.5-.1-1-.1-1.5.2zM537.2 658.9l-2.5-4.6c-.1.6-.3 1.2-.8 1.8-.2.3-.6.5-1 .8-1.4.8-2.7.8-3.9.2-1-.5-2-1.6-2.8-3.1l-2.5-4.6c-.9-1.6-1.1-3.2-.6-4.7.4-1.5 1.4-2.6 2.8-3.4 1.4-.8 2.9-.9 4.4-.4 1.4.5 2.5 1.4 3.3 2.9l.3.5-3 1.9-.5-.7c-.5-.8-1.2-1.2-2-1.1-.2 0-.4.1-.7.2-1.3.7-1.6 1.8-.9 3.1l2.8 5.2c.3.6.8 1 1.5 1.2.3.1.7 0 1.1-.2.6-.3.9-.8.9-1.4 0-.5-.1-1-.3-1.4l-.3-.6 3.2-1.7 6.3 11.7-9.4 5.1-1.8-3.2 6.4-3.5z"/></g></g><g fill="#FFF"><path d="M227 195.4c-1.4-1.8-2-3.6-1.8-5.3.2-1.5 1-2.8 2.4-3.9 1.3-1 2.7-1.4 4.4-1.1 1.6.3 2.9 1 3.9 2.3 1 1.3 1.7 2.8 2.1 4.5.2.9.4 2.7.5 5.2 0 .7.1 1.8.2 3.2l.1 1.2c.1.8.1 1.4.2 1.8 0 .2.1.3.1.4l5.7-4.4 2.2 2.8-9.2 7.2-2.1-2.7c0-.1-.1-.6-.2-1.6 0-.4-.1-.9-.1-1.5l-.1-1.7c0-.9-.1-2.4-.2-4.5-.1-1.9-.3-3.6-.6-4.9-.3-1.1-.7-2-1.3-2.7-.5-.6-1-1-1.6-1.1-.7-.1-1.3 0-1.9.4-.8.6-1 1.5-.6 2.7.1.4.4.8.7 1.2l.6.7-2.9 2.2-.5-.4zM241.7 194.7l-4.4-16.2 2.9-2.3 9.5 12.2 1.9-1.4 2.3 2.9-1.9 1.4 3.2 4.1-2.9 2.3-3.2-4.1-5.1 4-2.3-2.9zm5.2-4l-4.7-6 2.3 7.9 2.4-1.9z"/><g><path d="M589.7 620.1c1.4 1.8 2 3.6 1.8 5.3-.2 1.5-1 2.8-2.4 3.9-1.3 1-2.7 1.4-4.4 1.1-1.6-.3-2.9-1-3.9-2.3-1-1.3-1.7-2.8-2.1-4.5-.2-.9-.4-2.7-.5-5.2 0-.7-.1-1.8-.2-3.2V614c-.1-.8-.1-1.4-.2-1.8 0-.2-.1-.3-.1-.4l-5.7 4.4-2.2-2.8 9.2-7.2 2.1 2.7c0 .1.1.6.2 1.6 0 .4.1.9.1 1.5l.1 1.7c0 .9.1 2.4.2 4.5.1 1.9.3 3.6.6 4.9.3 1.1.7 2 1.3 2.7.5.6 1 1 1.6 1.1.7.2 1.3 0 1.9-.4.8-.6 1-1.5.6-2.7-.1-.4-.4-.8-.7-1.2l-.6-.7 2.9-2.2.4.4zM565.2 621.4c-1.3 1-1.5 2.2-.6 3.4l.9 1.1c1.5 2 3.3 2.2 5.4.5l1.9 2.5c-1.1.9-1.7 1.8-1.7 2.9-.1.9.3 1.9 1.1 2.9l.3.4c1 1.3 2 1.5 3.1.6.6-.5.9-1.1.8-1.8-.1-.5-.3-1.1-.8-1.6l-.4-.5 2.8-2.2.3.4c1.1 1.4 1.6 2.8 1.6 4.2 0 1.6-.8 2.9-2.2 4.1-1.4 1.1-2.8 1.4-4.3 1.2-1.4-.3-2.6-1-3.5-2.2l-.6-.8c-.9-1.2-1.4-2.5-1.3-3.9 0-.6.1-1.2.3-1.8-1.2.2-2.5 0-3.7-.6-.6-.3-1.2-.8-1.8-1.5l-1.2-1.5c-1.1-1.4-1.5-3-1.3-4.6.2-1.6 1-2.9 2.3-3.9 1.3-1 2.7-1.4 4.3-1.2 1.6.2 2.9.9 3.9 2.2l.4.5-2.6 2.4-.6-.6c-.4-.4-.9-.7-1.4-.8-.4-.3-.9-.2-1.4.2z"/></g></g><g><path fill="#FFF" d="M212.9 228.7c1.1-1.2 1.1-2.4 0-3.4l-1.1-1c-1.8-1.7-3.6-1.6-5.4.4l-2.3-2.1c1-1 1.4-2.1 1.2-3.1-.1-.9-.6-1.8-1.6-2.7l-.4-.4c-1.2-1.1-2.2-1.1-3.2-.1-.5.6-.7 1.2-.5 1.9.1.5.5 1 1 1.5l.5.4-2.4 2.6-.4-.4c-1.3-1.2-2-2.5-2.2-3.8-.2-1.6.3-3 1.5-4.4 1.2-1.3 2.5-1.9 4.1-1.9 1.4 0 2.7.6 3.8 1.6l.8.7c1.1 1 1.8 2.2 2 3.7.1.6.1 1.2 0 1.8 1.2-.4 2.4-.4 3.8 0 .7.2 1.4.6 2 1.2l1.4 1.3c1.3 1.2 2 2.7 2 4.4 0 1.6-.5 3-1.7 4.3-1.1 1.2-2.4 1.8-4 1.9-1.6.1-3-.5-4.2-1.5l-.4-.4 2.2-2.8.7.5c.5.4 1 .6 1.5.5.4 0 .9-.2 1.3-.7zM611.2 586.6l7 15.2-2.5 2.7-11.4-10.5-1.6 1.7-2.7-2.5 1.6-1.7-3.9-3.6 2.5-2.7 3.9 3.6 4.4-4.8 2.7 2.6zm-4.4 4.7l5.6 5.2-3.5-7.4-2.1 2.2z"/></g><g fill="#FFF"><path d="M185 271.3L169.3 261l-1.7 2.6-2.1-1.4c.4-.8.6-1.7.5-2.7 0-1-.3-1.8-.8-2.6l1.4-2.1 20.4 13.3-2 3.2zM173.6 250.9l4.4 2.9c-.2-.6-.3-1.2-.2-1.9.1-.4.2-.8.5-1.1.9-1.3 2-2 3.4-2.1 1.2 0 2.5.5 4 1.4l4.4 2.9c1.5 1 2.4 2.3 2.8 3.9.3 1.5.1 3-.9 4.4-.9 1.3-2.1 2.1-3.7 2.4-1.5.2-2.9-.1-4.3-.9l-.5-.3 1.7-3.1.7.4c.9.5 1.6.5 2.3.1.2-.1.4-.3.5-.5.8-1.3.6-2.3-.7-3.2l-5-3.3c-.6-.4-1.2-.5-1.9-.3-.3.1-.6.3-.8.7-.4.5-.4 1.1-.2 1.6s.5.8 1 1.1l.6.4-2 3.1-11.1-7.3 5.9-9 3.1 2-4 5.7z"/><g><path d="M631 544.8l15.7 10.3 1.7-2.6 2.1 1.4c-.4.8-.6 1.7-.5 2.7 0 1 .3 1.8.8 2.6l-1.4 2.1-20.4-13.4 2-3.1zM638.6 566.7l.5.3c.5.3 1 .5 1.5.4.5 0 .9-.3 1.2-.8.3-.5.4-1 .2-1.5s-.5-.9-1-1.2l-4.1-2.7c.2 1.1 0 2.1-.6 2.9-.9 1.4-2 2.1-3.4 2.1-1.2.1-2.6-.4-4-1.3l-3.5-2.3c-1.3-.9-2-2.1-2.3-3.5-.3-1.4 0-2.8.8-4.1.9-1.4 2.1-2.2 3.6-2.4 1.5-.2 2.9.1 4.3.9l11.1 7.3c1 .7 1.7 1.5 2.2 2.5.5 1 .6 2.1.4 3.2-.1.7-.4 1.4-.8 2.1-.9 1.3-2.1 2.1-3.7 2.4-1.5.2-2.9-.1-4.3-.9l-.4-.3 2.3-3.1zm-8.7-10c-.5-.3-1-.5-1.5-.4-.5 0-1 .3-1.3.8-.3.5-.4 1-.2 1.5s.5.9 1 1.2l3.8 2.5c.6.4 1.2.5 1.9.3.3-.1.6-.3.8-.7.3-.5.4-1.1.2-1.6-.2-.4-.5-.8-.9-1.1l-3.8-2.5z"/></g></g><g fill="#FFF"><path d="M162.2 308.7c.7-1.5.3-2.6-1.1-3.3l-1.3-.6c-2.3-1-4-.3-5 2.1l-2.9-1.3c.6-1.3.6-2.4.2-3.3-.4-.9-1.2-1.5-2.4-2.1l-.5-.2c-1.5-.6-2.5-.3-3 1-.3.7-.3 1.4.1 1.9.3.4.8.8 1.4 1.1l.6.3-1.4 3.3-.5-.2c-1.6-.7-2.7-1.7-3.3-2.9-.7-1.4-.7-2.9 0-4.6.7-1.6 1.8-2.6 3.3-3.1 1.3-.4 2.7-.3 4.2.3l.9.4c1.4.6 2.4 1.5 3 2.8.3.5.5 1.1.5 1.7 1-.8 2.2-1.2 3.6-1.2.7 0 1.5.1 2.3.5l1.8.8c1.6.7 2.8 1.9 3.3 3.5.5 1.5.5 3-.2 4.6-.7 1.5-1.7 2.5-3.2 3.1-1.5.6-3 .5-4.4-.1l-.6-.2 1.2-3.3.8.3c.6.2 1.1.2 1.6 0 .4-.4.8-.8 1-1.3zM160.7 298.5l-11.5-12.1 1.5-3.4 14.1 6.2.9-2.2 3.4 1.5-.9 2.2 4.8 2.1-1.5 3.4-4.8-2.1-2.6 5.9-3.4-1.5zm2.6-6l-7-3.1 5.8 5.8 1.2-2.7z"/><g><path d="M653.7 507.6c-.7 1.5-.3 2.6 1.1 3.3l1.3.6c2.3 1 4 .3 5-2.1l2.9 1.3c-.6 1.3-.6 2.4-.2 3.3.4.9 1.2 1.5 2.4 2.1l.5.2c1.5.6 2.5.3 3-1 .3-.7.3-1.4-.1-1.9-.3-.4-.8-.8-1.4-1.1l-.6-.3 1.4-3.3.5.2c1.6.7 2.7 1.7 3.3 2.9.7 1.4.7 2.9 0 4.6-.7 1.6-1.8 2.6-3.3 3.1-1.3.4-2.7.3-4.2-.3l-.9-.4c-1.4-.6-2.4-1.5-3-2.8-.3-.5-.5-1.1-.5-1.7-1 .8-2.2 1.2-3.6 1.2-.7 0-1.5-.1-2.3-.5l-1.8-.8c-1.6-.7-2.8-1.9-3.3-3.5-.5-1.5-.5-3 .2-4.6.7-1.5 1.7-2.5 3.2-3.1 1.5-.6 3-.5 4.4.1l.6.2-1.2 3.3-.8-.3c-.6-.2-1.1-.2-1.6 0-.4.4-.8.8-1 1.3zM647.9 520.8c-.7 1.5-.3 2.6 1.1 3.3l1.3.6c2.3 1 4 .3 5-2.1l2.9 1.3c-.6 1.3-.6 2.4-.2 3.3.4.9 1.2 1.5 2.4 2.1l.5.2c1.5.6 2.5.3 3-1 .3-.7.3-1.4-.1-1.9-.3-.4-.8-.8-1.4-1.1l-.6-.3 1.4-3.3.5.2c1.6.7 2.7 1.7 3.3 2.9.7 1.4.7 2.9 0 4.6-.7 1.6-1.8 2.6-3.3 3.1-1.3.4-2.7.3-4.2-.3l-.9-.4c-1.4-.6-2.4-1.6-3-2.8-.3-.5-.5-1.1-.5-1.7-1 .8-2.2 1.2-3.6 1.2-.7 0-1.5-.1-2.3-.5l-1.8-.8c-1.6-.7-2.8-1.9-3.3-3.5-.5-1.5-.5-3 .2-4.6.7-1.5 1.7-2.5 3.2-3.1 1.5-.6 3-.5 4.4.1l.6.2-1.2 3.3-.8-.3c-.6-.2-1.1-.2-1.6 0-.4.4-.8.8-1 1.3z"/></g></g><g fill="#FFF"><path d="M134.3 352.3c-2.2-.6-3.8-1.6-4.7-3.1-.8-1.3-1-2.8-.5-4.5.4-1.6 1.3-2.7 2.8-3.5 1.4-.8 2.9-1 4.5-.6s3.1 1.2 4.4 2.3c.7.6 1.9 1.9 3.6 3.8.5.5 1.2 1.3 2.1 2.4l.8.9c.5.6.9 1 1.2 1.3.2.1.3.2.3.2l1.8-7 3.5.9-2.9 11.3-3.3-.8c-.1 0-.4-.4-1.1-1.1-.3-.3-.6-.7-1-1.1l-1.1-1.3c-.6-.7-1.6-1.9-2.9-3.4-1.3-1.5-2.4-2.6-3.5-3.5-.9-.7-1.8-1.2-2.7-1.4-.7-.2-1.4-.1-2 .1-.6.3-1 .8-1.2 1.5-.3 1 .1 1.8 1.2 2.5.3.2.8.4 1.3.6l.9.2-.9 3.5-.6-.2zM137.9 338.2c-2.2-.6-3.8-1.6-4.7-3.1-.8-1.3-1-2.8-.5-4.5.4-1.6 1.3-2.7 2.8-3.5 1.4-.8 2.9-1 4.5-.6s3.1 1.2 4.4 2.3c.7.6 1.9 1.9 3.6 3.8.5.5 1.2 1.3 2.1 2.4l.8.9c.5.6.9 1 1.2 1.3.2.1.3.2.3.2l1.8-7 3.5.9-2.9 11.3-3.3-.8c-.1 0-.4-.4-1.1-1.1-.3-.3-.6-.7-1-1.1l-1.1-1.3c-.6-.7-1.6-1.9-2.9-3.4-1.3-1.5-2.4-2.6-3.5-3.5-.9-.7-1.8-1.2-2.7-1.4-.7-.2-1.4-.1-2 .1-.6.3-1 .8-1.2 1.5-.3 1 .1 1.8 1.2 2.5.3.2.8.4 1.3.6l.9.2-.9 3.5-.6-.2z"/><g><path d="M681 466.2c2.2.6 3.8 1.6 4.7 3.1.8 1.3 1 2.8.5 4.5-.4 1.6-1.3 2.7-2.8 3.5-1.4.8-2.9 1-4.5.6s-3.1-1.2-4.4-2.3c-.7-.6-1.9-1.9-3.6-3.8-.5-.5-1.2-1.3-2.1-2.4l-.8-.9c-.5-.6-.9-1-1.2-1.3-.2-.1-.3-.2-.3-.2l-1.8 7-3.5-.9 2.9-11.3 3.3.8c.1 0 .4.4 1.1 1.1.3.3.6.7 1 1.1l1.1 1.3c.6.7 1.6 1.9 2.9 3.4 1.3 1.5 2.4 2.7 3.5 3.5.9.7 1.8 1.2 2.7 1.4.7.2 1.4.1 2-.1.6-.3 1-.8 1.2-1.5.3-1-.1-1.8-1.2-2.5-.3-.2-.8-.4-1.3-.6l-.9-.2.9-3.5.6.2zM659.8 479l18.2 4.6.8-3 2.5.6c-.1.9 0 1.8.4 2.7.3.9.9 1.6 1.6 2.2l-.6 2.5-23.6-6 .7-3.6z"/></g></g><g><path fill="#FFF" d="M126.6 386.3l5.2.4c-.5-.4-.8-.9-1.1-1.6-.1-.4-.1-.8-.1-1.2.1-1.6.8-2.7 2-3.4 1-.6 2.4-.8 4.2-.6l5.2.4c1.8.1 3.2.8 4.3 2.1 1 1.2 1.5 2.6 1.3 4.2-.1 1.6-.8 2.9-2.1 3.8-1.2.9-2.6 1.3-4.2 1.2h-.6v-3.5h.8c1 0 1.7-.4 2-1 .1-.2.2-.4.2-.6.1-1.5-.6-2.3-2.2-2.4l-5.9-.5c-.7-.1-1.3.2-1.8.6-.2.2-.4.6-.4 1-.1.6.2 1.1.6 1.5.4.3.9.5 1.4.5l.7.1-.3 3.7-13.3-1.1.9-10.7 3.7.3-.5 6.8zM686.7 432.8h.6c.6 0 1.1-.1 1.5-.3.4-.3.7-.7.7-1.3 0-.6-.1-1-.5-1.4-.4-.3-.9-.5-1.5-.6l-4.8-.4c.7.9 1 1.9.9 2.9-.1 1.6-.8 2.8-2 3.5-1 .6-2.4.9-4.2.7l-4.2-.3c-1.5-.2-2.8-.9-3.8-2s-1.4-2.4-1.3-4c.1-1.6.8-2.9 2.1-3.8 1.2-.9 2.6-1.3 4.2-1.2l13.2 1.1c1.2.1 2.2.5 3.1 1.1.9.7 1.5 1.5 1.9 2.6.3.7.3 1.4.3 2.2-.1 1.6-.8 2.9-2.1 3.8-1.2.9-2.6 1.3-4.2 1.2h-.5l.6-3.8zm-12.3-4.7c-.6 0-1.1.1-1.5.3-.5.3-.7.7-.8 1.3 0 .6.1 1.1.5 1.4.4.3.8.5 1.4.6l4.5.4c.7.1 1.3-.2 1.8-.6.2-.2.4-.6.4-1 .1-.6-.2-1.1-.6-1.5-.4-.3-.8-.5-1.3-.5l-4.4-.4z"/></g><g fill="#FFF"><path d="M148 436.6l-18.7 1.5.3 3.1-2.6.2c-.2-.9-.6-1.7-1.2-2.4s-1.4-1.3-2.2-1.5l-.2-2.6 24.3-2 .3 3.7zM122.3 421.5l3.7-.3 21 3.4.3 3.6-21-3.4.6 7.4-3.7.3-.9-11z"/><g><path d="M668 378.6l18.7-1.5-.3-3.1 2.6-.2c.2.9.6 1.7 1.2 2.4s1.4 1.3 2.2 1.5l.2 2.6-24.3 2-.3-3.7zM675 396.9c-1.6.1-3-.3-4.2-1.4-1.2-1-1.9-2.4-2-4v-.3c-.1-1.6.3-3 1.4-4.2 1-1.2 2.4-1.9 3.9-2l2.2-.2c1.5-.1 2.8.3 4 1.2.5.4.9.9 1.3 1.4.4-1 1.2-1.9 2.3-2.5.6-.3 1.3-.5 2.3-.6l1.3-.1c1.6-.1 2.9.2 4 1.1 1.2.9 1.9 2.3 2.1 4v.3c.1 1.7-.3 3.1-1.4 4.3-1 1-2.2 1.6-3.8 1.7l-1.3.1c-1.5.1-2.8-.2-3.9-1-.5-.4-.9-.8-1.2-1.3-.5 1.1-1.4 2-2.6 2.7-.6.4-1.4.6-2.3.7l-2.1.1zm1.5-3.8c1.4-.1 2.4-.5 2.8-1.2.2-.3.3-.8.2-1.3-.1-1-.5-1.6-1.4-1.9-.5-.2-1.2-.2-2-.1l-1.2.1c-.8.1-1.4.4-1.9.9-.4.4-.6 1-.5 1.6.1 1 .7 1.6 1.6 1.9.3.1.7.2 1.1.1l1.3-.1zm10.6-.8c1.7-.2 2.7-.8 3-1.8.1-.2.1-.5.1-.8-.1-.6-.3-1.1-.6-1.5-.3-.3-.7-.5-1.1-.6-.5-.1-1-.1-1.7 0-1.1.1-1.8.4-2.2.7-.6.4-.8 1.1-.8 2 .1.9.5 1.5 1.1 1.8.6.2 1.3.3 2.2.2z"/></g></g><g fill="#FFF"><path d="M153 480.3c-.4-1.6-1.4-2.3-2.9-1.9l-1.4.4c-2.4.6-3.3 2.2-2.7 4.7l-3 .8c-.3-1.4-1-2.3-1.9-2.7-.8-.4-1.9-.5-3.1-.2l-.5.1c-1.5.4-2.1 1.3-1.8 2.6.2.8.6 1.2 1.3 1.4.5.2 1.1.1 1.8 0l.6-.2.9 3.5-.5.1c-1.7.4-3.2.3-4.4-.2-1.4-.7-2.4-1.9-2.8-3.6-.4-1.7-.2-3.1.7-4.4.8-1.2 1.9-1.9 3.5-2.3l1-.3c1.5-.4 2.8-.3 4.1.4.5.3 1 .6 1.5 1 .3-1.2 1-2.2 2.1-3.1.5-.5 1.2-.8 2.1-1l1.9-.5c1.7-.4 3.3-.2 4.7.7 1.4.9 2.3 2.1 2.7 3.7.4 1.6.2 3-.6 4.4-.8 1.4-2 2.3-3.6 2.6l-.6.1-1.1-3.3.8-.3c.6-.2 1-.5 1.3-1-.1-.4 0-.9-.1-1.5zM137.2 475.2c-2.2.6-4.1.4-5.6-.5-1.3-.8-2.2-2-2.6-3.7-.4-1.6-.1-3 .7-4.4.9-1.4 2.1-2.3 3.7-2.7 1.6-.4 3.2-.4 4.9-.1.9.2 2.6.7 5 1.6.7.2 1.7.6 3 1.1l1.1.4c.7.3 1.3.4 1.7.6.2.1.3.1.4.1l-1.8-7 3.5-.9 2.9 11.3-3.3.8c-.1 0-.6-.1-1.5-.4-.4-.1-.9-.3-1.4-.5l-1.6-.6c-.9-.4-2.3-.9-4.2-1.6-1.8-.7-3.4-1.2-4.8-1.4-1.1-.2-2.1-.2-3 .1-.7.2-1.3.5-1.7 1.1-.4.6-.5 1.2-.4 1.9.3 1 1 1.5 2.2 1.7.4 0 .9 0 1.4-.1l.9-.2.9 3.5-.4-.1z"/><g><path d="M663.7 338.2c.4 1.6 1.4 2.3 2.9 1.9l1.4-.4c2.4-.6 3.3-2.2 2.7-4.7l3-.8c.3 1.4 1 2.3 1.9 2.7.8.4 1.9.5 3.1.2l.5-.1c1.5-.4 2.1-1.3 1.8-2.6-.2-.8-.6-1.2-1.3-1.4-.5-.2-1.1-.1-1.8 0l-.6.2-.9-3.5.5-.1c1.7-.4 3.2-.3 4.4.2 1.4.7 2.4 1.9 2.8 3.6.4 1.7.2 3.1-.7 4.4-.8 1.2-1.9 1.9-3.5 2.3l-1 .3c-1.5.4-2.8.3-4.1-.4-.5-.3-1-.6-1.5-1-.3 1.2-1 2.2-2.1 3.1-.5.5-1.2.8-2.1 1l-1.9.5c-1.7.4-3.3.2-4.7-.7-1.4-.9-2.3-2.1-2.7-3.7-.4-1.6-.2-3 .6-4.4.8-1.4 2-2.3 3.6-2.6l.6-.1 1.1 3.3-.8.3c-.6.2-1 .5-1.3 1 0 .4-.1.9.1 1.5zM663.2 350.5l18.2-4.6-.8-3 2.5-.6c.3.8.8 1.6 1.6 2.2.7.6 1.5 1 2.4 1.2l.6 2.5-23.6 6-.9-3.7z"/></g></g><g fill="#FFF"><path d="M157.8 532.2c-2.1.9-4 1.1-5.6.4-1.4-.6-2.5-1.6-3.2-3.2-.6-1.5-.6-3 0-4.5s1.7-2.6 3.2-3.2c1.5-.7 3.1-1 4.8-.9.9 0 2.7.3 5.2.8.7.1 1.7.3 3.2.6l1.2.2c.8.1 1.4.2 1.8.3h.4l-2.9-6.6 3.3-1.4 4.7 10.7-3.1 1.4c-.1 0-.6 0-1.6-.2-.4-.1-.9-.2-1.5-.3l-1.6-.3c-.9-.2-2.4-.5-4.4-.9-1.9-.4-3.5-.6-4.9-.6-1.1 0-2.1.2-3 .6-.7.3-1.2.7-1.5 1.3-.3.6-.3 1.3 0 1.9.4.9 1.2 1.4 2.5 1.3.4 0 .9-.1 1.4-.4l.9-.4 1.5 3.3-.8.1zM158.1 503.1c1.5-.7 3-.7 4.5-.1s2.6 1.6 3.2 3.1c.7 1.5.7 3 .1 4.5s-1.6 2.6-3.1 3.2l-12.2 5.3c-1.5.7-3 .7-4.5.1s-2.6-1.6-3.2-3.1c-.6-1.5-.7-3-.1-4.5s1.6-2.6 3.1-3.2l12.2-5.3zm-10.7 8.8c-.5.2-.9.6-1.1 1.2-.2.5-.2 1.1 0 1.6s.6.9 1.2 1.1c.5.2 1.1.2 1.6 0l12.2-5.3c.5-.2.9-.6 1.1-1.2.2-.5.2-1.1 0-1.6s-.6-.9-1.2-1.1c-.5-.2-1.1-.2-1.6 0l-12.2 5.3z"/><g><path d="M644.5 296.2l17.2-7.5-1.3-2.9 2.3-1c.4.8 1.1 1.4 1.9 1.9.8.5 1.7.8 2.6.8l1 2.3-22.3 9.8-1.4-3.4zM672.1 297.6c.6 1.5.6 2.9 0 4.4-.6 1.4-1.6 2.4-3.1 3l-12.2 5.3c-1.5.6-3 .7-4.4.2-1.5-.5-2.5-1.5-3.1-2.9-.7-1.5-.7-2.9 0-4.4.6-1.4 1.6-2.4 3.1-3l.5-.2 1.5 3.5-.6.2c-.5.2-.9.6-1.2 1-.2.5-.2.9 0 1.5.2.5.6.9 1.1 1 .5.1 1 .1 1.6-.2l4.5-2c-1-.5-1.8-1.2-2.2-2.1-.6-1.5-.6-2.8.1-4 .6-1 1.7-1.9 3.3-2.6l3.8-1.7c1.1-.4 2.1-.5 3.2-.3s2 .6 2.8 1.4c.5.6.9 1.2 1.3 1.9zm-4.6 4.1c.5-.2.9-.6 1.2-1 .2-.5.3-.9 0-1.5-.2-.5-.6-.9-1.1-1-.5-.1-1-.1-1.6.2l-4.1 1.8c-.7.3-1.1.8-1.3 1.4-.1.3-.1.7.1 1.1.4.9 1.1 1.2 2.1 1 .3-.1.5-.1.7-.2l4-1.8z"/></g></g><g><path fill="#FFF" d="M165.7 559.7l3.1-2 20.1-7 2 3-20.1 7 4.1 6.2-3.1 2-6.1-9.2zM634.8 266.9c-1.4.9-2.8 1.2-4.4.8-1.6-.3-2.8-1.2-3.7-2.5l-.2-.2c-.9-1.4-1.2-2.8-.8-4.4.3-1.6 1.2-2.8 2.5-3.7l1.9-1.2c1.2-.8 2.6-1.1 4.1-.9.6.1 1.2.3 1.8.6-.1-1.1.2-2.2.9-3.3.4-.6.9-1.1 1.7-1.6l1.1-.7c1.3-.9 2.7-1.2 4-1 1.5.2 2.8 1.1 3.7 2.5l.2.2c.9 1.4 1.2 2.9.8 4.4-.4 1.4-1.2 2.5-2.5 3.3l-1.1.7c-1.3.8-2.6 1.1-3.9.9-.6-.1-1.1-.3-1.6-.5.1 1.2-.2 2.5-.9 3.6-.4.6-.9 1.2-1.7 1.7l-1.9 1.3zm-.5-4c1.2-.8 1.8-1.6 1.9-2.4 0-.4-.1-.8-.4-1.3-.5-.8-1.2-1.1-2.1-1-.5.1-1.2.4-1.9.8l-1 .6c-.7.4-1.1 1-1.2 1.7-.1.6 0 1.1.3 1.7.6.8 1.4 1.1 2.4.9.3-.1.7-.2 1.1-.4l.9-.6zm9-5.7c1.4-.9 2-1.9 1.8-3 0-.3-.2-.5-.3-.8-.3-.5-.8-.9-1.3-1-.4-.1-.8-.1-1.3 0-.4.1-.9.4-1.5.8-.9.6-1.4 1.2-1.6 1.7-.3.7-.2 1.4.3 2.1.5.7 1.1 1.1 1.9 1.1.5-.2 1.2-.4 2-.9z"/></g><g fill="#FFF"><path d="M219.1 588.9l-13.8 12.7 2.1 2.3-1.9 1.7c-.7-.6-1.5-1-2.4-1.2-1-.2-1.8-.2-2.7.1l-1.7-1.9 17.9-16.5 2.5 2.8zM212.5 581.7l-13.8 12.7 2.1 2.3-1.9 1.7c-.7-.6-1.5-1-2.4-1.2-1-.2-1.8-.2-2.7.1l-1.7-1.9L210 579l2.5 2.7z"/><g><path d="M595.1 225.2l13.8-12.7-2.1-2.3 1.9-1.7c.7.6 1.5 1 2.4 1.2 1 .2 1.8.2 2.7-.1l1.7 1.9-17.9 16.5-2.5-2.8zM612.6 218.3c1.7-1.6 3.4-2.3 5.1-2.2 1.5.1 2.9.7 4.1 2 1.1 1.2 1.6 2.6 1.5 4.2-.1 1.6-.8 3-2 4.1-1.2 1.1-2.6 1.9-4.3 2.4-.9.3-2.6.6-5.2.9-.7.1-1.7.3-3.2.5l-1.2.2c-.8.1-1.4.2-1.8.3-.2.1-.3.1-.4.1l4.9 5.3-2.6 2.4-7.9-8.6 2.5-2.3c.1-.1.6-.2 1.5-.3.4-.1.9-.1 1.5-.2l1.7-.2c.9-.1 2.4-.3 4.5-.6 1.9-.2 3.5-.6 4.9-1 1.1-.4 2-.9 2.6-1.5.5-.5.9-1.1 1-1.7.1-.7-.1-1.3-.6-1.8-.7-.8-1.6-.9-2.8-.4-.4.2-.8.4-1.2.8l-.7.6-2.4-2.7.5-.3z"/></g></g><g fill="#FFF"><path d="M251.3 621.8c-1.3-1-2.5-.9-3.4.3l-.9 1.1c-1.5 2-1.3 3.8.8 5.4l-1.9 2.5c-1.1-.9-2.2-1.2-3.2-1-.9.2-1.8.8-2.6 1.8l-.3.4c-1 1.3-.9 2.3.2 3.2.6.5 1.2.6 1.9.3.5-.2 1-.6 1.4-1.1l.4-.5 2.8 2.2-.3.4c-1.1 1.4-2.3 2.2-3.6 2.5-1.6.4-3 0-4.5-1.1-1.4-1.1-2.1-2.4-2.2-3.9-.1-1.4.3-2.7 1.3-4l.6-.8c.9-1.2 2.1-1.9 3.5-2.3.6-.1 1.2-.2 1.8-.1-.5-1.1-.6-2.4-.3-3.7.1-.7.5-1.4 1.1-2.1l1.2-1.5c1.1-1.4 2.5-2.2 4.2-2.4 1.6-.2 3.1.3 4.4 1.3 1.3 1 2 2.3 2.2 3.9.2 1.6-.2 3-1.2 4.3l-.4.5-2.9-1.9.5-.7c.3-.5.5-1 .4-1.6-.3-.6-.6-1-1-1.4zM233.5 610.6c1-1.3 2.3-2 3.9-2.2 1.6-.2 3 .2 4.3 1.2 1.3 1 2 2.3 2.2 3.9.2 1.6-.2 3-1.2 4.3l-8.2 10.5c-1 1.3-2.3 2-3.9 2.2-1.6.2-3-.2-4.3-1.2-1.3-1-2-2.3-2.2-3.9-.2-1.6.2-3 1.2-4.3l8.2-10.5zm-5.3 12.8c-.4.5-.5 1-.4 1.6.1.6.3 1.1.8 1.4.5.4 1 .5 1.6.4.6-.1 1-.3 1.4-.8l8.2-10.5c.4-.5.5-1 .4-1.6-.1-.6-.3-1-.8-1.4-.5-.4-1-.5-1.6-.4-.6.1-1.1.3-1.4.8l-8.2 10.5z"/><g><path d="M569.1 179.9c1.4-1.8 3-2.8 4.7-3 1.5-.2 3 .3 4.3 1.3 1.3 1 2 2.3 2.1 3.9.2 1.6-.3 3.1-1.2 4.4-1 1.3-2.3 2.3-3.8 3.1-.8.4-2.5 1-4.9 1.7-.7.2-1.7.5-3 1l-1.1.4c-.7.2-1.3.5-1.7.6-.2.1-.3.1-.3.2l5.7 4.4-2.2 2.8-9.2-7.2 2.1-2.7c0-.1.5-.3 1.5-.6.4-.1.9-.3 1.4-.5l1.6-.5c.9-.3 2.4-.7 4.3-1.3 1.9-.6 3.4-1.2 4.6-1.8 1-.5 1.8-1.2 2.3-1.9.5-.6.7-1.2.7-1.9s-.3-1.3-.9-1.7c-.8-.6-1.7-.6-2.8.1-.4.2-.7.5-1 1l-.6.7-2.9-2.2.3-.3zM589.6 186.8c1.3 1 2 2.3 2.1 3.8.1 1.5-.3 2.9-1.3 4.2l-8.2 10.5c-1 1.3-2.3 2-3.8 2.3-1.5.2-2.9-.1-4.2-1.1-1.3-1-2-2.3-2.1-3.8-.1-1.5.3-2.9 1.3-4.2l.3-.4 3 2.3-.4.5c-.4.5-.5 1-.5 1.5s.2.9.7 1.3c.5.4.9.5 1.4.4.5-.1.9-.4 1.3-.9l3-3.8c-1.1.1-2.1-.2-2.9-.8-1.3-1-1.9-2.2-1.8-3.6 0-1.2.6-2.5 1.7-3.9l2.6-3.3c.7-.9 1.6-1.5 2.6-1.8 1-.3 2.1-.4 3.1-.1.9 0 1.5.4 2.1.9zm-2 5.8c.4-.5.5-1 .5-1.5s-.2-1-.7-1.3c-.5-.4-.9-.5-1.4-.3-.5.1-.9.4-1.3.9l-2.8 3.6c-.4.6-.6 1.2-.5 1.9 0 .3.3.6.6.9.7.6 1.5.5 2.3-.1l.5-.5 2.8-3.6z"/></g></g><g fill="#FFF"><path d="M286.6 659.5c-1.1 2-2.5 3.3-4.2 3.8-1.5.4-3 .2-4.5-.6-1.4-.8-2.3-1.9-2.8-3.5-.4-1.6-.3-3.1.5-4.5.8-1.5 1.9-2.7 3.3-3.7.8-.6 2.3-1.4 4.6-2.5.6-.3 1.6-.8 2.8-1.5l1.1-.6c.7-.4 1.2-.7 1.6-.9.2-.1.3-.2.3-.2l-6.3-3.4 1.7-3.2 10.3 5.6-1.6 3c0 .1-.5.3-1.3.8-.4.2-.8.4-1.3.7l-1.5.8c-.9.4-2.2 1.1-4.1 2-1.7.9-3.2 1.7-4.3 2.6-.9.7-1.6 1.5-2 2.3-.4.6-.5 1.3-.4 2 .1.7.5 1.2 1.1 1.5.9.5 1.8.3 2.8-.5.3-.3.6-.7.9-1.1l.4-.8 3.2 1.7-.3.2zM266.7 649.7l-.3.5c-.3.5-.4 1-.3 1.6.1.5.4.9.9 1.2s1 .3 1.5.1c.5-.2.9-.6 1.1-1.1l2.3-4.3c-1.1.3-2.1.1-3-.3-1.4-.8-2.2-1.8-2.4-3.2-.2-1.2.2-2.6 1-4.1l2-3.7c.8-1.3 1.9-2.2 3.3-2.6 1.4-.4 2.8-.3 4.1.4 1.4.8 2.3 1.9 2.7 3.4.4 1.5.2 2.9-.6 4.3l-6.3 11.7c-.6 1-1.3 1.9-2.3 2.4-1 .6-2 .8-3.2.7-.7 0-1.5-.3-2.2-.6-1.4-.8-2.3-1.9-2.7-3.4-.4-1.5-.2-2.9.6-4.3l.2-.5 3.6 1.8zm9.3-9.4c.3-.5.4-1 .3-1.5-.1-.5-.4-.9-.9-1.2-.5-.3-1-.3-1.5-.1-.5.2-.8.6-1.1 1.1l-2.1 4c-.3.6-.4 1.3-.1 1.9.1.3.4.6.8.8.6.3 1.1.3 1.6 0 .4-.2.8-.6 1-1l2-4z"/><g><path d="M529.5 156.5c1.1-2 2.5-3.3 4.2-3.8 1.5-.4 3-.2 4.5.6 1.4.8 2.3 1.9 2.8 3.5.4 1.6.3 3.1-.5 4.5-.8 1.5-1.9 2.7-3.3 3.7-.8.6-2.3 1.4-4.6 2.5-.6.3-1.6.8-2.8 1.5l-1.1.6c-.7.4-1.2.7-1.6.9-.2.1-.3.2-.3.2l6.3 3.4-1.7 3.2-10.3-5.6 1.6-3c0-.1.5-.3 1.3-.8.4-.2.8-.4 1.3-.7l1.5-.8c.9-.4 2.2-1.1 4.1-2 1.7-.9 3.2-1.7 4.3-2.6.9-.7 1.6-1.5 2-2.3.4-.6.5-1.3.4-2-.1-.7-.5-1.2-1.1-1.6-.9-.5-1.8-.3-2.8.5-.3.3-.6.7-.9 1.1l-.4.8-3.2-1.7.3-.1zM547.2 162.5l-2.5 4.6c.6-.3 1.2-.4 1.9-.3.4 0 .8.2 1.2.4 1.4.8 2.2 1.8 2.3 3.2.1 1.2-.2 2.5-1.1 4.1l-2.5 4.6c-.9 1.6-2.1 2.6-3.6 3.1s-3 .3-4.4-.5c-1.4-.8-2.3-1.9-2.7-3.4-.4-1.5-.2-2.9.6-4.3l.3-.5 3.2 1.4-.3.8c-.4.9-.3 1.7.1 2.3.1.2.3.3.5.5 1.3.7 2.4.4 3.1-1l2.8-5.2c.3-.6.4-1.3.2-1.9-.1-.3-.4-.6-.8-.8-.6-.3-1.1-.3-1.6 0-.4.3-.8.6-1 1l-.3.6-3.2-1.7 6.3-11.7 9.4 5.1-1.8 3.2-6.1-3.6z"/></g></g><g><path fill="#FFF" d="M315.1 678.7c-1.5-.5-2.6-1.5-3.2-3-.6-1.4-.6-2.8-.1-4.4l4.3-12.6c.5-1.5 1.5-2.7 2.8-3.4 1.4-.7 2.8-.8 4.3-.3s2.6 1.5 3.2 2.9c.6 1.4.6 2.8.1 4.4l-.2.5-3.6-1.2.2-.6c.2-.6.2-1.1 0-1.6s-.5-.8-1.1-1c-.6-.2-1-.1-1.5.1-.4.3-.7.7-.9 1.3l-1.6 4.6c1.1-.4 2.1-.5 3-.2 1.5.5 2.5 1.4 2.9 2.8.4 1.2.2 2.6-.3 4.2l-1.4 3.9c-.4 1-1 1.9-1.9 2.6-.8.7-1.8 1-2.9 1.1-.7.2-1.4.1-2.1-.1zm.1-6.2c-.2.6-.2 1.1 0 1.6s.5.8 1.1 1c.6.2 1 .1 1.5-.1.4-.3.7-.7.9-1.3l1.5-4.3c.2-.7.2-1.3-.2-1.9-.1-.3-.4-.5-.9-.6-.9-.3-1.6 0-2.1.8-.2.3-.3.5-.3.6l-1.5 4.2z"/><g fill="#FFF"><path d="M485.6 158.2l6.1-17.7-3-1 .8-2.4c.9.2 1.8.1 2.7-.1.9-.3 1.7-.7 2.3-1.4l2.4.8-7.9 23-3.4-1.2zM505 158.9c-.5 1.5-1.5 2.6-3 3.3-1.4.7-2.9.8-4.4.3-1.5-.5-2.6-1.5-3.4-2.9-.7-1.4-.8-2.9-.3-4.4l4.3-12.6c.5-1.5 1.5-2.6 3-3.3 1.4-.7 2.9-.8 4.4-.3 1.5.5 2.6 1.5 3.3 3 .7 1.4.8 2.9.3 4.4l-4.2 12.5zm.7-13.8c.2-.6.2-1.1-.1-1.6-.3-.5-.7-.9-1.2-1.1-.6-.2-1.1-.2-1.6.1-.5.3-.9.7-1.1 1.2l-4.3 12.6c-.2.6-.2 1.1.1 1.6.2.5.7.9 1.2 1.1.6.2 1.1.2 1.6-.1.5-.3.9-.7 1.1-1.2l4.3-12.6z"/></g></g><g fill="#FFF"><path d="M375.1 685.3c-.4 2.3-1.3 3.9-2.7 4.9-1.2.9-2.7 1.2-4.4.9-1.6-.3-2.8-1.1-3.8-2.5-.9-1.4-1.2-2.9-1-4.4.3-1.6.9-3.2 1.9-4.6.5-.8 1.7-2.1 3.5-3.9.5-.5 1.2-1.3 2.2-2.3l.8-.9c.5-.6.9-1 1.2-1.4.1-.2.2-.3.2-.3l-7.1-1.2.6-3.5L378 668l-.6 3.3c0 .1-.3.5-1 1.2-.3.3-.6.7-1 1.1l-1.2 1.2-3.2 3.2c-1.4 1.4-2.4 2.6-3.2 3.8-.6 1-1 1.9-1.2 2.8-.1.7 0 1.4.3 2 .4.6.9 1 1.6 1.1 1 .2 1.8-.3 2.4-1.4.2-.4.4-.8.4-1.3l.2-.9 3.6.6v.6zM351 669.2c.3-1.6 1.1-2.9 2.4-3.8 1.3-.9 2.8-1.3 4.3-1h.3c1.6.3 2.9 1.1 3.8 2.4.9 1.3 1.3 2.8 1 4.3l-.4 2.2c-.2 1.5-1 2.7-2.1 3.6-.5.4-1.1.7-1.7.9.9.7 1.5 1.6 1.8 2.9.2.6.2 1.4 0 2.3l-.2 1.3c-.3 1.6-.9 2.8-2 3.6-1.2 1-2.7 1.3-4.3 1h-.3c-1.7-.3-3-1.1-3.8-2.4-.7-1.2-1-2.6-.7-4.1l.2-1.3c.2-1.5.9-2.7 2-3.5.5-.4 1-.6 1.5-.8-1-.8-1.7-1.8-2-3.2-.2-.7-.2-1.5-.1-2.4l.3-2zm1.5 12.9c-.2 1.6.1 2.8 1 3.4.2.1.5.2.8.3.6.1 1.2 0 1.6-.3.4-.2.7-.5.9-1 .2-.4.4-1 .4-1.6.1-1.1.1-1.8-.1-2.3-.3-.7-.9-1.1-1.7-1.2-.9-.1-1.6.1-2.1.7-.4.4-.7 1.1-.8 2zm1.9-10.6c-.2 1.4-.1 2.4.5 3 .3.3.7.5 1.2.6 1 .2 1.7-.1 2.2-.9.3-.5.5-1.1.6-1.9l.2-1.1c.1-.8 0-1.5-.4-2-.3-.5-.8-.8-1.4-.9-1-.1-1.8.3-2.3 1.1-.2.3-.3.6-.4 1.1l-.2 1z"/><g><path d="M441.4 130.7c.4-2.3 1.3-3.9 2.7-4.9 1.2-.9 2.7-1.2 4.4-.9 1.6.3 2.8 1.1 3.8 2.5.9 1.4 1.2 2.9 1 4.4-.3 1.6-.9 3.2-1.9 4.6-.5.8-1.7 2.1-3.5 3.9-.5.5-1.2 1.3-2.2 2.3l-.8.9c-.5.6-.9 1-1.2 1.4-.1.2-.2.3-.2.3l7.1 1.2-.6 3.5-11.5-1.9.6-3.3c0-.1.3-.5 1-1.2.3-.3.6-.7 1-1.1l1.2-1.2 3.2-3.2c1.4-1.4 2.4-2.6 3.2-3.8.6-1 1-1.9 1.2-2.8.1-.7 0-1.4-.3-2-.4-.6-.9-1-1.6-1.1-1-.2-1.8.3-2.4 1.4-.2.4-.4.8-.4 1.3l-.2.9-3.6-.6v-.6zM467.6 128.1l-.6 3.6-8.5 19.5-3.6-.6 8.5-19.5-7.3-1.2.6-3.6 10.9 1.8z"/></g></g><g><circle transform="rotate(-27.34 228.586 290.2)" fill="#FFF6DB" cx="228.6" cy="290.2" r="11.4"/><path fill="#F3DFCB" d="M228.6 294c-3.9 0-7.3-2-9.4-4.9 0 .4-.1.7-.1 1.1 0 5.2 4.3 9.5 9.5 9.5s9.5-4.3 9.5-9.5c0-.4-.1-.8-.1-1.1-2.1 2.9-5.6 4.9-9.4 4.9z"/><circle fill="#FFF" cx="228.6" cy="284.5" r="3.8"/></g><g><circle fill="#4C4565" cx="408" cy="408" r="41.3"/></g><g><circle fill="#726D92" cx="408" cy="408" r="29.4"/></g><g><circle transform="rotate(-27.34 726.62 226.168)" fill="#FFF6DB" cx="726.6" cy="226.2" r="11.4"/><path fill="#F3DFCB" d="M726.6 230c-3.9 0-7.3-2-9.4-4.9 0 .4-.1.7-.1 1.1 0 5.2 4.3 9.5 9.5 9.5s9.5-4.3 9.5-9.5c0-.4-.1-.8-.1-1.1-2.1 2.9-5.6 4.9-9.4 4.9z"/><circle fill="#FFF" cx="726.6" cy="220.5" r="3.8"/></g><g><circle transform="rotate(-27.34 611.624 459.192)" fill="#FFF6DB" cx="611.6" cy="459.2" r="11.4"/><path fill="#F3DFCB" d="M611.6 463c-3.9 0-7.3-2-9.4-4.9 0 .4-.1.7-.1 1.1 0 5.2 4.3 9.5 9.5 9.5s9.5-4.3 9.5-9.5c0-.4-.1-.8-.1-1.1-2.1 2.9-5.6 4.9-9.4 4.9z"/><circle fill="#FFF" cx="611.6" cy="453.5" r="3.8"/></g><g><circle transform="rotate(-27.34 480.63 738.22)" fill="#FFF6DB" cx="480.6" cy="738.2" r="11.4"/><path fill="#F3DFCB" d="M480.6 742c-3.9 0-7.3-2-9.4-4.9 0 .4-.1.7-.1 1.1 0 5.2 4.3 9.5 9.5 9.5s9.5-4.3 9.5-9.5c0-.4-.1-.8-.1-1.1-2.1 2.9-5.6 4.9-9.4 4.9z"/><circle fill="#FFF" cx="480.6" cy="732.5" r="3.8"/></g><g><circle transform="rotate(-27.34 303.603 498.212)" fill="#FFF6DB" cx="303.6" cy="498.2" r="11.4"/><path fill="#F3DFCB" d="M303.6 502c-3.9 0-7.3-2-9.4-4.9 0 .4-.1.7-.1 1.1 0 5.2 4.3 9.5 9.5 9.5s9.5-4.3 9.5-9.5c0-.4-.1-.8-.1-1.1-2.1 2.9-5.6 4.9-9.4 4.9z"/><circle fill="#FFF" cx="303.6" cy="492.5" r="3.8"/></g><g><circle transform="rotate(-27.34 41.576 365.216)" fill="#FFF6DB" cx="41.6" cy="365.2" r="11.4"/><path fill="#F3DFCB" d="M41.6 369c-3.9 0-7.3-2-9.4-4.9 0 .4-.1.7-.1 1.1 0 5.2 4.3 9.5 9.5 9.5s9.5-4.3 9.5-9.5c0-.4-.1-.8-.1-1.1-2.1 2.9-5.6 4.9-9.4 4.9z"/><circle fill="#FFF" cx="41.6" cy="359.5" r="3.8"/></g><g><circle transform="rotate(-27.34 142.597 604.228)" fill="#FFF6DB" cx="142.6" cy="604.2" r="11.4"/><path fill="#F3DFCB" d="M142.6 608c-3.9 0-7.3-2-9.4-4.9 0 .4-.1.7-.1 1.1 0 5.2 4.3 9.5 9.5 9.5s9.5-4.3 9.5-9.5c0-.4-.1-.8-.1-1.1-2.1 2.9-5.6 4.9-9.4 4.9z"/><circle fill="#FFF" cx="142.6" cy="598.5" r="3.8"/></g></svg>
